<svg width="163" height="38" viewBox="0 0 163 38" fill="none" xmlns="http://www.w3.org/2000/svg">
<g clip-path="url(#clip0_3114_2739)">
<path fill-rule="evenodd" clip-rule="evenodd" d="M12.6451 1.6386C15.1778 0.507187 18.1103 0 20.6696 0C23.4689 0 26.1615 0.130048 28.9474 0.403149C29.4673 0.455168 29.9872 0.507187 30.507 0.559206C30.747 0.585216 30.9469 0.689254 31.0935 0.884326C31.2402 1.06639 31.2935 1.28747 31.2402 1.52156C31.2268 1.59959 31.2135 1.67762 31.2002 1.75565L31.1735 1.93771C31.1202 2.19781 31.0802 2.47091 31.0402 2.74401L31.5601 1.33949C31.68 1.01437 31.9866 0.806297 32.3465 0.806297H38.0917C38.5449 0.806297 38.9181 1.17043 38.9181 1.61259V2.90007C38.9181 3.31622 38.5982 3.66735 38.1583 3.70637C36.9586 3.8104 36.0122 4.81177 36.0122 5.99521V31.5236C36.0122 32.7071 36.9453 33.7084 38.1583 33.8125C38.5849 33.8515 38.9181 34.2026 38.9181 34.6188V35.9062C38.9181 36.3484 38.5449 36.7125 38.0917 36.7125H28.3209C27.9744 36.7125 27.6678 36.5044 27.5478 36.1923C27.4545 35.9452 27.4812 35.6851 27.6278 35.4641C26.868 35.9322 26.0682 36.3224 25.2418 36.6345C22.8691 37.6229 20.2431 38 17.6705 38C14.6046 38 11.4988 37.5188 8.67285 36.2964H8.68618C8.67285 36.2964 8.67285 36.2834 8.65952 36.2834L8.6062 36.2574C8.59287 36.2574 8.59287 36.2444 8.57954 36.2444L8.49956 36.2053C8.49956 36.2053 8.48623 36.2053 8.48623 36.1923L8.39293 36.1533L8.32628 36.1143L8.25963 36.0753C8.13966 36.0103 8.03302 35.9322 7.95304 35.8152C7.92638 35.7892 7.91305 35.7502 7.88639 35.7242L7.87306 35.7112C7.85973 35.6851 7.84641 35.6591 7.83308 35.6331L7.79309 35.5681L7.77976 35.5421C7.77976 35.5291 7.77976 35.5291 7.76643 35.5161V35.8802C7.76643 36.1013 7.68645 36.2964 7.52649 36.4524C7.36653 36.6085 7.16659 36.6865 6.93998 36.6865H0.861602C0.40839 36.6865 0.0351562 36.3224 0.0351562 35.8802V34.5927C0.0351562 34.1766 0.355071 33.8255 0.794953 33.7864C1.99463 33.6824 2.94105 32.681 2.94105 31.4976V5.9692C2.94105 4.78576 2.00796 3.78439 0.794953 3.68036C0.368401 3.64134 0.0351562 3.29021 0.0351562 2.87406V1.58658C0.0351562 1.14442 0.40839 0.780287 0.861602 0.780287H11.832C12.1919 0.780287 12.4852 0.988364 12.6051 1.31348C12.6451 1.41752 12.6585 1.53457 12.6585 1.6386H12.6451ZM26.828 16.4381C26.7214 16.295 26.668 16.1259 26.6814 15.9439L26.7347 13.7721C26.7347 12.0034 26.788 10.1307 26.4015 8.38809C26.2548 7.75086 25.9083 7.17864 25.6283 6.60643C25.5617 6.47639 25.535 6.33333 25.5483 6.20329C25.1618 6.02122 24.7752 5.83915 24.3753 5.7091C24.0421 5.59206 23.8288 5.30595 23.8288 4.96783L23.8155 4.18754C23.7222 4.16153 23.6155 4.13552 23.5222 4.10951L23.0957 4.77276C22.9091 5.05886 22.5758 5.20192 22.2292 5.13689C21.7094 5.03285 21.1762 4.96783 20.643 4.92882C20.2964 4.90281 20.0165 4.68172 19.9099 4.3436L19.6832 3.58932C19.6033 3.58932 19.5366 3.58932 19.4566 3.58932C19.43 3.58932 19.4033 3.58932 19.3767 3.58932L19.1501 4.3436C19.0434 4.66872 18.7635 4.8898 18.4169 4.91581C17.8971 4.95483 17.3772 5.01985 16.8707 5.11088C16.5241 5.17591 16.1908 5.03285 16.0176 4.73374L15.6043 4.0705C15.511 4.09651 15.4044 4.12252 15.3111 4.14853L15.2844 4.92882C15.2711 5.26694 15.0578 5.55305 14.7379 5.67009C14.538 5.74812 14.3113 5.87817 14.1114 5.9692C13.9648 6.04723 13.7915 6.12526 13.6315 6.20329C13.6715 6.39836 13.6582 6.59343 13.5515 6.7885C12.7251 8.20602 12.7118 10.0137 13.3383 11.4962C14.0981 13.2779 15.6443 14.3963 17.5771 14.7474C19.1234 15.0205 20.7763 15.0465 22.3492 15.2416C23.9221 15.4367 25.455 15.7748 26.8547 16.4771L26.828 16.4381ZM10.0058 20.3395C10.5523 20.9637 11.1522 21.4709 11.7654 21.809C12.032 21.9521 12.1919 22.2122 12.1919 22.5113V30.6913C12.1919 31.0034 12.032 31.2635 11.752 31.4066C11.6854 31.4456 11.6054 31.4716 11.5254 31.4846L11.3521 32.1869C11.4454 32.2389 11.5254 32.2909 11.6187 32.3429L12.2052 31.8097C12.4585 31.5756 12.8184 31.5236 13.1383 31.6797C13.6049 31.9008 14.0847 32.0958 14.5779 32.2779C14.9112 32.3949 15.1245 32.681 15.1245 33.0192L15.1378 33.7994C15.2311 33.8255 15.3377 33.8515 15.431 33.8775L15.8576 33.2142C16.0442 32.9281 16.3775 32.7851 16.724 32.8501C17.2439 32.9541 17.7771 33.0192 18.3103 33.0582C18.6569 33.0842 18.9368 33.3053 19.0434 33.6434L19.27 34.3977C19.35 34.3977 19.4167 34.3977 19.4966 34.3977C19.5233 34.3977 19.5499 34.3977 19.5766 34.3977L19.8032 33.6564C19.9099 33.3313 20.1898 33.1102 20.5364 33.0842C21.0562 33.0452 21.5761 32.9801 22.0826 32.8891C22.4292 32.8241 22.7624 32.9671 22.9357 33.2663L23.3489 33.9295C23.4422 33.9035 23.5489 33.8775 23.6422 33.8515L23.6688 33.0712C23.6822 32.7331 23.8955 32.447 24.2287 32.3299C24.6019 32.1999 24.9752 32.0568 25.3351 31.9008C25.3217 31.7187 25.3617 31.5366 25.4684 31.3806C26.2815 30.1841 26.828 28.7666 26.668 27.3101C26.5481 26.2567 26.0549 25.2683 25.2684 24.54C25.0285 24.319 24.7752 24.1369 24.4953 23.9678C22.6558 22.8754 19.8165 22.8234 17.7238 22.6804C15.3911 22.5113 12.9117 22.2512 10.9123 20.9767C10.6057 20.7817 10.3124 20.5736 10.0325 20.3525L10.0058 20.3395ZM19.47 18.3758C19.1234 18.3758 18.8435 18.6489 18.8435 18.987C18.8435 19.3251 19.1234 19.5982 19.47 19.5982C19.8165 19.5982 20.0965 19.3251 20.0965 18.987C20.0965 18.6489 19.8165 18.3758 19.47 18.3758Z" fill="#65696D"/>
<path fill-rule="evenodd" clip-rule="evenodd" d="M0.834961 1.59958H11.8054C9.71259 3.32922 7.24658 5.7091 7.24658 8.92128C7.24658 8.94729 7.24658 8.9733 7.24658 8.99931C7.25991 8.94729 7.27324 8.89527 7.27324 8.83025L7.28657 8.79123C7.31323 8.68719 7.32656 8.59616 7.35322 8.50513L7.36655 8.46611C7.40654 8.31005 7.44653 8.14099 7.49985 7.98493L7.51318 7.94592C9.0461 2.99109 15.3777 0.80629 20.6697 0.80629C25.1618 0.80629 27.5612 1.06639 30.4137 1.35249C30.4004 1.43052 30.3871 1.50855 30.3737 1.59958L30.3604 1.66461V1.69062L30.3471 1.76864V1.78165C29.9605 3.99246 29.7339 6.28131 29.5606 8.51813V8.57015V8.66118V8.73921V8.80424L29.5473 8.89527V8.93428L29.534 9.05133V9.07734L29.5206 9.22039L32.3465 1.59958H38.0917V2.88706C36.4788 3.03011 35.1991 4.3696 35.1991 5.9822V31.5106C35.1991 33.1232 36.4788 34.4627 38.0917 34.6057V35.8932H28.321C30.3071 34.1636 32.2133 31.4586 32.2133 28.3374C32.2133 28.3114 32.2133 28.2854 32.2133 28.2594C31.2668 31.9528 28.1477 34.6838 24.9219 35.8802C22.9224 36.7125 20.4964 37.1937 17.6571 37.1937C14.6446 37.1937 11.6721 36.7255 9.00611 35.5551H8.99278H8.97945L8.92613 35.5291H8.9128H8.89948H8.88614L8.83283 35.5031H8.8195L8.76618 35.4771H8.75285H8.73952L8.67287 35.4511L8.60622 35.412C8.59289 35.399 8.59289 35.386 8.57956 35.373V35.36C8.56623 35.347 8.56623 35.334 8.5529 35.321L8.53957 35.295L8.52624 35.256L8.51291 35.23L8.48625 35.178V35.1649C8.47292 35.1389 8.47292 35.1259 8.45959 35.0999L8.44626 35.0739L8.43293 35.0219L8.4196 34.9959L8.39294 34.9439L8.37961 34.9179L8.35295 34.8528L8.33962 34.8268C8.32629 34.8008 8.31296 34.7618 8.31296 34.7358V34.7228L8.28631 34.6318L8.27298 34.5927L8.24632 34.5277C7.72645 32.8631 7.37988 30.9514 7.09996 29.2348V29.2218L7.0733 29.0787V29.0657L7.04664 28.9357L7.03331 28.8966L7.01998 28.8056L7.00665 28.7276L6.99332 28.6626L6.97999 28.5585V28.5325L6.96666 28.4025L6.95333 28.2724V28.2464L6.94 28.1424V28.1164L6.92667 28.0383L6.91334 27.9603L6.90001 27.8823L6.88668 27.7652V27.7522L6.94 35.9452H0.86162V34.6578C2.47452 34.5147 3.75418 33.1752 3.75418 31.5626V6.03422C3.75418 4.42162 2.47452 3.08213 0.86162 2.93908V1.6516L0.834961 1.59958ZM32 24.6441C31.1602 20.8727 29.1741 18.8829 27.2146 17.6085C24.2021 15.6448 20.1765 16.0219 17.3905 15.5147C12.4052 14.6174 10.9656 9.49349 12.7918 6.35934C12.8184 6.30732 12.1919 5.64407 11.912 5.1889C11.8587 5.11088 10.8456 5.34496 10.6323 5.42299C11.0989 5.08487 11.8587 4.68172 11.8853 4.70773L12.9651 5.54003C13.0317 5.59205 14.2047 4.96782 14.4447 4.88979L14.458 4.66871L14.498 3.52429C14.9912 3.36823 15.4977 3.25119 16.0042 3.13415L16.6174 4.10951L16.7374 4.30458C17.2706 4.21354 17.8171 4.13552 18.3636 4.0965L18.4303 3.87542L18.7635 2.78302C19.0034 2.77001 19.2301 2.77001 19.47 2.77001C19.7499 2.77001 20.0432 2.78302 20.3231 2.79602L20.6563 3.88843L20.723 4.10951C21.2962 4.14852 21.8427 4.22655 22.4025 4.33059L22.5225 4.13552L23.149 3.16016C23.6555 3.2772 24.1621 3.40725 24.6419 3.56331L24.6686 4.70773V4.92881C25.1618 5.09787 25.6817 5.35797 26.1482 5.57905L27.2412 4.75975L28.4409 5.47501C28.3876 5.55304 27.2279 5.16289 27.1613 5.25393C26.9347 5.61806 26.3482 6.20328 26.3748 6.2553C26.6681 6.82751 27.0546 7.46474 27.2146 8.21902C27.6411 10.0787 27.5745 12.3415 27.5745 13.7721L27.5212 15.9699C30.2138 17.4654 32.6665 21.4319 32.0666 24.1889C32.04 24.332 32.04 24.488 32.0266 24.6441H32ZM26.1349 31.8487L27.0946 32.72L28.2943 32.655L26.8813 33.3183L26.1615 32.655L26.0016 32.499C25.5084 32.7331 25.0018 32.9281 24.482 33.1102L24.4687 33.3313L24.4287 34.4757C23.9355 34.6318 23.4289 34.7488 22.9224 34.8658L22.3092 33.8905L22.1893 33.6954C21.6561 33.7864 21.1095 33.8645 20.5497 33.9035L20.483 34.1246L20.1498 35.217C19.9099 35.23 19.6833 35.23 19.4433 35.23C19.1634 35.23 18.8701 35.217 18.5902 35.204L18.257 34.1116L18.1903 33.8905C17.6171 33.8515 17.0706 33.7734 16.5108 33.6694L16.3908 33.8645L15.7643 34.8398C15.2578 34.7228 14.7512 34.5927 14.2714 34.4367L14.2447 33.2923V33.0712C13.7249 32.8891 13.2183 32.681 12.7251 32.4469L12.5518 32.603L11.6987 33.3833C11.2322 33.1492 10.7923 32.8891 10.3524 32.616L10.6323 31.5106L10.6857 31.2895C10.539 31.1855 10.3924 31.0944 10.2591 30.9904L9.37935 30.1581L8.15301 30.8734L9.49931 29.5079L11.3255 30.7433V22.5633C8.72619 21.1328 6.76671 17.4394 6.99332 14.8775C7.03331 14.4223 7.01998 13.9801 7.08663 13.564C7.57983 16.8282 9.27271 19.026 11.2988 20.3395C15.511 23.0445 22.3092 20.8207 25.775 24.0068C27.4679 25.5544 28.4009 28.5455 26.1082 31.8877L26.1349 31.8487ZM19.47 17.5825C20.2698 17.5825 20.9229 18.2197 20.9229 19C20.9229 19.7803 20.2698 20.4175 19.47 20.4175C18.6702 20.4175 18.017 19.7803 18.017 19C18.017 18.2197 18.6702 17.5825 19.47 17.5825Z" fill="url(#paint0_linear_3114_2739)"/>
<path fill-rule="evenodd" clip-rule="evenodd" d="M0.835009 1.59958H11.8054C11.6455 1.72963 11.4988 1.85968 11.3389 2.00273H1.24823V2.95208C1.11493 2.92607 0.981637 2.90006 0.835009 2.88706V1.59958ZM9.2461 4.98083C11.8854 2.10677 16.5908 0.80629 20.6564 0.80629C25.1485 0.80629 27.5479 1.06639 30.4004 1.35249C30.3871 1.43052 30.3738 1.50855 30.3605 1.59958L30.3471 1.66461V1.69062V1.70362C27.6945 1.44352 25.3218 1.20944 21.0696 1.20944C15.791 1.20944 9.15279 3.39424 7.61986 8.34907L7.60653 8.38808C7.55322 8.54414 7.51323 8.7002 7.47324 8.86926L7.45991 8.90827C7.43325 8.99931 7.41992 9.10335 7.39326 9.19438L7.37993 9.23339C7.3666 9.28541 7.35327 9.33743 7.35327 9.40246C7.35327 9.37645 7.35327 9.35044 7.35327 9.32443C7.35327 7.67282 8.31301 6.22929 9.23277 4.99383L9.2461 4.98083ZM32.3066 1.59958H38.0517V2.00273H32.7065L29.454 9.45448L29.4674 9.31142V9.28541L29.4807 9.16837V9.12936L29.494 9.03832V8.9733L29.5074 8.81724V8.76522L32.2933 1.61259L32.3066 1.59958ZM36.3055 33.8905C36.7854 34.2806 37.3986 34.5407 38.0517 34.6057V34.9439C37.3586 34.7878 36.7454 34.4107 36.3055 33.9035V33.8905ZM29.1208 35.8932H28.281C30.4138 34.0465 31.8801 31.9658 32.1866 28.5325C32.3333 31.3155 31.1203 33.9945 29.1208 35.8932ZM1.22157 35.8932H0.80835V34.6057C2.42125 34.4627 3.70091 33.1232 3.70091 31.5106V5.9822C3.70091 5.22792 3.42099 4.53867 2.95444 3.99246C3.66092 4.56467 4.1008 5.42299 4.1008 6.37234V31.9007C4.1008 33.5133 2.82115 34.8528 1.20824 34.9959V35.8932H1.22157ZM29.1874 19.2341C28.5476 18.5838 27.8678 18.0506 27.188 17.6085C24.1754 15.6448 20.1499 16.0219 17.3639 15.5147C16.0176 15.2676 14.9246 14.7214 14.0848 13.9671C14.9646 14.9035 16.1909 15.6187 17.7772 15.9049C20.5497 16.412 24.5753 16.0349 27.6012 17.9986C28.1344 18.3498 28.6676 18.7529 29.1874 19.2211V19.2341ZM28.0677 5.449C27.8811 5.40999 27.6412 5.34496 27.4412 5.29294L26.5748 5.94318C26.4282 6.11224 26.3215 6.24229 26.3349 6.2553C26.6281 6.82751 27.0147 7.46474 27.1746 8.21902C27.6012 10.0787 27.5345 12.3415 27.5345 13.7721L27.4812 15.9699C27.6145 16.0479 27.7612 16.1259 27.8945 16.217L27.9478 14.1622C27.9478 12.7317 28.0144 10.4689 27.5879 8.60916C27.4146 7.85489 27.028 7.21765 26.7481 6.64544C26.7214 6.59342 27.3079 6.00821 27.5345 5.64407C27.5879 5.55304 28.7609 5.94318 28.8142 5.86515L28.0811 5.42299L28.0677 5.449ZM29.3874 17.4654C31.1203 19.2471 32.4932 21.718 32 24.41C32.7198 22.6153 32.6932 20.1964 29.3874 17.4654ZM26.1216 31.8357L26.5481 32.2129C28.8275 28.8836 27.8945 25.9055 26.2016 24.345C26.1749 24.319 26.1349 24.2929 26.1083 24.2669C27.5879 25.8925 28.2677 28.7016 26.1216 31.8357ZM27.4279 33.0452L26.8681 33.3053L26.1483 32.642L25.975 32.486C25.4818 32.72 24.9752 32.9151 24.4554 33.0972L24.442 33.3183L24.4021 34.4627C23.9622 34.5927 23.4956 34.7228 23.0424 34.8138L23.309 35.243C23.8155 35.1389 24.3221 35.0089 24.8153 34.8528L24.8553 33.7084L24.8686 33.4873C25.3885 33.3053 25.895 33.1102 26.3882 32.8761L26.5481 33.0322L27.268 33.6954L28.6809 33.0322L27.4812 33.0972L27.4146 33.0452H27.4279ZM22.4426 34.0986L22.2959 33.8645L22.176 33.6694C21.6428 33.7604 21.0963 33.8385 20.5497 33.8775L20.4831 34.0986L20.1499 35.191C19.9099 35.204 19.6833 35.204 19.4434 35.204C19.2568 35.204 19.0701 35.204 18.8835 35.191L19.0035 35.5811C19.2834 35.5941 19.5633 35.6071 19.8566 35.6071C20.0965 35.6071 20.3231 35.6071 20.5631 35.5941L20.8963 34.5017L20.963 34.2806C21.4695 34.2416 21.9627 34.1896 22.4559 34.0986H22.4426ZM18.3103 34.2416L18.2704 34.0856L18.2037 33.8645C17.6305 33.8255 17.084 33.7474 16.5242 33.6434L16.4042 33.8385L15.7777 34.8138C15.4045 34.7358 15.0445 34.6448 14.6846 34.5277V34.8008C15.1778 34.9569 15.671 35.0869 16.1776 35.204L16.8041 34.2286L16.924 34.0335C17.3773 34.1246 17.8305 34.1896 18.297 34.2286L18.3103 34.2416ZM14.2581 33.2923V33.2663V33.0452C13.7382 32.8631 13.2317 32.655 12.7385 32.4209L12.5652 32.577L11.7121 33.3573C11.4055 33.2012 11.0989 33.0322 10.8057 32.8631L10.779 32.9931C11.2189 33.2663 11.6588 33.5263 12.1253 33.7604L12.9784 32.9801L13.1517 32.8241C13.5116 32.9931 13.8849 33.1622 14.2714 33.3053L14.2581 33.2923ZM20.6564 18.2067C20.803 18.4278 20.8963 18.7009 20.8963 18.987C20.8963 19.7673 20.2432 20.4045 19.4434 20.4045C19.1501 20.4045 18.8702 20.3135 18.6436 20.1704C18.9102 20.5476 19.3501 20.8077 19.8566 20.8077C20.6564 20.8077 21.3095 20.1704 21.3095 19.3901C21.3095 18.896 21.0563 18.4668 20.6564 18.2067Z" fill="#FEFEFE"/>
<path d="M162.112 6.84052C161.925 5.33196 161.779 4.33059 161.672 3.43326C161.019 3.22519 159.766 2.84805 158.353 2.84805C155.007 2.84805 152.955 4.85078 152.955 7.36071C152.955 9.80561 155.007 11.0541 157.153 12.1335C159.033 13.0698 160.219 13.9411 160.219 15.5017C160.219 17.1273 159.206 18.1807 157.54 18.1807C155.087 18.1807 153.754 15.5667 153.328 14.0712L152.528 14.3053C152.675 15.6187 153.008 17.6865 153.221 18.2587C153.488 18.3758 153.914 18.5578 154.594 18.7529C155.247 18.961 156.114 19.104 157.047 19.104C160.539 19.104 162.859 17.0363 162.859 14.3833C162.859 11.8864 160.859 10.6509 158.526 9.54551C156.434 8.53114 155.394 7.73785 155.394 6.2553C155.394 4.91581 156.354 3.78439 157.967 3.78439C160.019 3.78439 160.859 5.52703 161.312 7.02258L162.112 6.85352V6.84052ZM64.4448 3.19918H57.4067V3.99247C59.3129 4.13552 59.4995 4.27857 59.4995 6.29432V9.90965H51.9548V6.29432C51.9548 4.27857 52.1414 4.13552 53.9809 3.99247V3.19918H46.9695V3.99247C48.9156 4.13552 49.1422 4.27857 49.1422 6.29432V15.6578C49.1422 17.6605 48.929 17.8036 47.0495 17.9856V18.7399H54.0609V17.9856C52.1548 17.8036 51.9681 17.6605 51.9681 15.6578V11.0671H59.5128V15.6578C59.5128 17.6605 59.3262 17.8036 57.2734 17.9856V18.7399H64.4581V17.9856C62.5253 17.8036 62.3121 17.6605 62.3121 15.6578V6.29432C62.3121 4.27857 62.4853 4.13552 64.4581 3.99247V3.19918H64.4448ZM77.8679 14.6694C77.4547 15.7098 76.9748 16.5031 76.5483 16.9973C75.9751 17.6085 75.1486 17.7775 73.629 17.7775C72.5893 17.7775 71.6962 17.7515 71.2697 17.5174C70.7898 17.2574 70.6698 16.6981 70.6698 15.5667V11.2882H72.616C74.7354 11.2882 75.002 11.4052 75.3086 13.1218H76.1217V8.40109H75.3086C74.9887 10.0527 74.7487 10.2088 72.616 10.2088H70.6698V4.96783C70.6698 4.23956 70.7365 4.16153 71.5896 4.16153H73.1092C74.6554 4.16153 75.3086 4.33059 75.7085 4.79876C76.095 5.29295 76.3883 5.95619 76.6282 6.87953L77.4414 6.76249C77.348 5.37098 77.2547 3.71937 77.2281 3.19918H65.8045V3.97946C67.6306 4.14853 67.8572 4.23956 67.8572 6.37234V15.6448C67.8572 17.6475 67.644 17.8036 65.4446 17.9986V18.7529H77.8279C78.0145 18.0246 78.5211 15.8138 78.6943 14.8515L77.8812 14.6824L77.8679 14.6694ZM84.0662 11.1191V5.29295C84.0662 4.73374 84.1329 4.47364 84.3062 4.33059C84.4795 4.18754 84.8394 4.09651 85.5059 4.09651C87.0921 4.09651 88.705 5.01985 88.705 7.59479C88.705 8.84325 88.3451 9.7796 87.4787 10.4819C86.8788 10.95 86.0524 11.1191 84.906 11.1191H84.0662ZM94.2635 18.2457C93.7037 18.0636 93.2238 17.7775 92.6506 17.1923C92.1441 16.6331 91.5842 15.9179 90.7178 14.6044C89.9713 13.551 89.0116 11.9514 88.5984 11.1971C90.3312 10.5209 91.7042 9.31143 91.7042 7.24367C91.7042 5.76112 91.0511 4.70773 90.0646 4.0705C89.1049 3.40725 87.8652 3.19918 85.8524 3.19918H79.2542V3.99247C81.107 4.13552 81.3203 4.31759 81.3203 6.26831V15.6057C81.3203 17.6085 81.0537 17.7905 79.1476 17.9856V18.7399H86.2123V17.9856C84.2795 17.8036 84.0662 17.6085 84.0662 15.6057V12.0034H84.6394C85.6525 12.0034 86.079 12.3155 86.5189 12.9918C87.2387 14.2142 87.9852 15.5797 88.7183 16.6591C89.7847 18.1937 90.7711 18.8049 93.3438 18.896C93.637 18.922 93.9436 18.948 94.1436 18.948L94.2635 18.2457ZM107.087 14.3443C105.807 16.7892 104.367 18.0767 102.048 18.0767C98.4624 18.0767 95.8764 15.1116 95.8764 10.6899C95.8764 7.11362 97.9425 3.82341 101.835 3.82341C104.128 3.82341 105.887 4.74675 106.607 7.46475L107.447 7.29568C107.3 5.86516 107.127 4.79876 106.887 3.45927C106.234 3.34223 104.434 2.82204 102.408 2.82204C96.5962 2.82204 92.624 6.19028 92.624 11.1451C92.624 14.9555 95.3699 19.065 101.835 19.065C103.568 19.065 105.807 18.5968 106.46 18.4278C106.9 17.6345 107.54 15.8008 107.887 14.6434L107.087 14.3183V14.3443ZM125.202 3.19918H119.11V3.99247C120.816 4.0835 121.403 4.48665 121.55 5.35797C121.67 6.08624 121.763 7.04859 121.763 8.93429V11.1191C121.763 15.1116 120.537 17.5825 117.311 17.5825C114.445 17.5825 112.979 15.4367 112.979 11.7303V6.48939C112.979 4.27857 113.245 4.13552 115.098 3.99247V3.19918H108.06V3.99247C109.966 4.16153 110.179 4.27857 110.179 6.48939V12.1985C110.179 15.0205 110.872 16.8022 112.325 17.8686C113.458 18.7659 114.978 19.091 116.538 19.091C118.244 19.091 119.937 18.5318 121.043 17.3744C122.469 15.9179 122.896 13.8891 122.896 11.2101V8.93429C122.896 7.04859 122.989 6.08624 123.083 5.40999C123.202 4.49965 123.802 4.0705 125.202 4.00547V3.21218V3.19918ZM137.332 14.5784C136.879 15.7488 136.439 16.5291 135.986 17.0233C135.426 17.6345 134.546 17.7775 133.333 17.7775C132.467 17.7775 131.72 17.7515 131.28 17.5435C130.8 17.3094 130.68 16.8802 130.68 15.6838V6.32033C130.68 4.25256 130.92 4.13552 132.827 3.99247V3.19918H125.722V3.99247C127.668 4.13552 127.895 4.27857 127.895 6.32033V15.6057C127.895 17.6475 127.655 17.7905 125.509 17.9856V18.7399H137.239C137.452 18.0636 137.959 15.7098 138.132 14.7864L137.332 14.5784ZM150.808 14.6694C150.395 15.7098 149.915 16.5031 149.489 16.9973C148.916 17.6085 148.089 17.7775 146.57 17.7775C145.53 17.7775 144.637 17.7515 144.21 17.5174C143.73 17.2574 143.61 16.6981 143.61 15.5667V11.2882H145.557C147.676 11.2882 147.943 11.4052 148.249 13.1218H149.062V8.40109H148.249C147.943 10.0527 147.689 10.2088 145.557 10.2088H143.61V4.96783C143.61 4.23956 143.677 4.16153 144.53 4.16153H146.05C147.596 4.16153 148.249 4.33059 148.649 4.79876C149.036 5.29295 149.329 5.95619 149.569 6.87953L150.382 6.76249C150.289 5.37098 150.195 3.71937 150.169 3.19918H138.745V3.97946C140.571 4.14853 140.798 4.23956 140.798 6.37234V15.6448C140.798 17.6475 140.584 17.8036 138.385 17.9986V18.7529H150.768C150.955 18.0246 151.462 15.8138 151.635 14.8515L150.822 14.6824L150.808 14.6694Z" fill="#FEFEFE"/>
<path d="M70.4964 31.4586C70.3898 31.4066 69.8966 31.5496 69.8433 31.6537C69.8566 32.2909 70.2298 34.2806 70.4431 34.5667C70.9096 34.8008 72.0427 35.1519 73.3223 35.1519C76.2016 35.1519 77.7745 33.6174 77.7745 31.6927C77.7745 30.3922 77.1613 29.5859 75.7883 28.7536C74.9886 28.2854 74.522 28.0123 73.7222 27.5181C72.9624 27.0109 72.5759 26.5168 72.5759 25.7625C72.5759 24.9172 73.189 24.2409 74.1754 24.2409C74.7486 24.2409 75.1752 24.345 75.5617 24.6571C76.0016 24.9692 76.2549 25.4894 76.4148 26.5948C76.5081 26.6468 76.9747 26.6468 77.068 26.5558C77.148 25.4244 77.2546 24.5791 77.3879 23.8898C76.4815 23.7988 75.7217 23.5647 74.2821 23.5647C72.1493 23.5647 70.3231 24.7091 70.3231 26.8419C70.3231 28.7666 71.6561 29.5989 73.2424 30.5613C74.9752 31.5886 75.3218 32.1348 75.3218 32.9931C75.3218 33.9035 74.6287 34.4107 73.7622 34.4107C73.229 34.4107 72.5492 34.2676 72.0693 33.9165C71.3762 33.4093 70.8963 32.707 70.4964 31.4586ZM129.934 24.462C130.28 24.501 130.627 24.54 130.894 24.6311C131.24 24.7351 131.374 24.8782 131.413 25.3984C131.467 26.0486 131.467 27.4661 131.467 28.8056C131.467 30.8864 131.467 32.1348 131.413 33.1752C131.413 33.7604 131.227 33.9555 130.894 34.0465C130.627 34.1246 130.174 34.1896 129.521 34.2806C129.481 34.3717 129.481 34.7488 129.521 34.8918C130.52 34.8918 131.88 34.8398 132.866 34.8398C134.839 34.8398 136.612 34.9179 138.172 34.9179C138.971 34.9179 139.065 34.7878 139.131 34.6318C139.465 34.0205 139.891 32.3819 139.985 31.9658C139.905 31.8747 139.425 31.7057 139.291 31.7317C139.011 32.3689 138.665 33.0062 138.305 33.3963C137.892 33.8645 137.638 33.9425 136.799 33.9425C135.759 33.9425 134.853 33.8905 134.493 33.8125C134.266 33.7604 134.106 33.5003 134.106 33.2142V30.0281C134.106 29.989 134.186 29.859 134.239 29.859C134.799 29.859 136.226 29.859 136.559 29.898C136.932 29.95 137.079 30.1581 137.185 30.4182L137.372 31.1595C137.465 31.2115 137.998 31.1985 138.092 31.1465C138.078 30.6393 138.052 29.807 138.052 29.3128C138.052 28.7276 138.132 27.9863 138.145 27.5571C138.052 27.4791 137.492 27.4661 137.399 27.5181C137.345 27.7522 137.305 27.9863 137.252 28.1684C137.145 28.6235 136.972 28.7796 136.585 28.8056C135.986 28.8446 134.706 28.8186 134.226 28.8186C134.173 28.8186 134.093 28.7406 134.093 28.6756C134.093 27.4401 134.079 26.3217 134.093 25.1643C134.093 25.0732 134.186 24.8522 134.279 24.8392C134.573 24.8001 136.372 24.8001 136.865 24.8522C137.119 24.8652 137.439 24.9562 137.625 25.3203C137.772 25.6064 137.865 25.9966 137.972 26.6598C138.065 26.7118 138.572 26.6728 138.678 26.6078C138.732 25.5934 138.812 24.436 138.945 23.8768C138.945 23.8378 138.905 23.7988 138.891 23.7988C138.238 23.8898 137.199 23.9028 136.479 23.9028H132.746C131.84 23.9028 130.667 23.8508 129.947 23.8508C129.867 23.9028 129.841 24.371 129.907 24.462H129.934ZM127.561 26.9459C127.601 27.037 128.174 26.9979 128.254 26.8939C128.254 25.9316 128.441 24.436 128.548 23.8638C127.708 23.8248 126.228 23.5777 124.775 23.5777C123.229 23.5777 122.003 23.8508 121.003 24.345C118.963 25.3203 117.964 27.232 117.964 29.2608C117.964 33.1882 120.43 35.1649 124.589 35.1649C125.948 35.1649 126.761 34.9049 127.375 34.7358C127.894 34.3977 128.654 32.9281 128.881 32.1999C128.788 32.0308 128.468 31.8617 128.321 31.8227C127.908 32.512 127.375 33.2402 126.908 33.6304C126.348 34.1246 125.642 34.1896 125.109 34.1896C122.123 34.1896 121.003 31.5496 121.003 29.0787C121.003 25.8015 122.363 24.319 124.322 24.319C125.069 24.319 125.802 24.41 126.495 24.7871C127.241 25.2163 127.361 25.9055 127.548 26.9589L127.561 26.9459ZM112.312 24.462C112.738 24.514 112.978 24.553 113.338 24.6441C113.658 24.7481 113.778 25.0082 113.805 25.3854C113.858 26.1656 113.858 27.037 113.858 28.9487C113.858 30.4182 113.858 32.499 113.818 33.1362C113.765 33.8645 113.645 34.0075 113.165 34.1116C112.965 34.1506 112.698 34.2026 112.312 34.2546C112.219 34.3326 112.219 34.8008 112.312 34.8658C113.018 34.8658 113.578 34.8138 115.244 34.8138C116.564 34.8138 117.271 34.8528 118.03 34.8658C118.11 34.8138 118.177 34.3456 118.124 34.2546C117.75 34.1766 117.284 34.1246 117.071 34.0595C116.551 33.9295 116.537 33.5133 116.511 33.1882C116.471 32.486 116.497 31.1595 116.497 28.9617C116.497 27.4011 116.484 26.1136 116.511 25.5544C116.524 25.0342 116.551 24.7741 116.951 24.6311C117.191 24.553 117.551 24.501 117.91 24.449C117.99 24.358 117.964 23.9028 117.91 23.8378C117.524 23.8378 116.884 23.8898 115.085 23.8898C113.805 23.8898 112.992 23.8378 112.312 23.8378C112.232 23.9158 112.232 24.358 112.299 24.449L112.312 24.462ZM98.8222 24.475C99.1954 24.527 99.382 24.5661 99.622 24.6441C100.235 24.8131 100.488 25.1903 101.088 26.5428C101.648 27.8303 102.475 29.937 103.488 32.4339C103.874 33.3703 104.181 34.1896 104.434 34.9699C104.847 34.9309 105.674 34.9309 106.047 34.9699C106.22 34.4237 106.487 33.5914 107.007 32.3559C107.953 30.0931 109.046 27.5181 109.646 26.1786C110.019 25.3593 110.246 24.9692 110.726 24.7091C110.912 24.6051 111.259 24.527 111.685 24.462C111.765 24.332 111.725 23.9028 111.672 23.8508C111.246 23.8508 110.672 23.9028 109.459 23.9028C108.126 23.9028 107.473 23.8248 107.153 23.8248C107.073 23.8768 107.02 24.345 107.073 24.462C107.553 24.514 107.966 24.6051 108.246 24.6831C108.753 24.8261 108.806 25.1903 108.593 25.7885C108.26 26.9459 106.767 30.7043 106.274 31.7317C106.234 31.7707 106.18 31.7447 106.167 31.7317C105.74 30.7693 103.901 26.2957 103.528 25.2423C103.448 25.0082 103.488 24.8392 103.608 24.7481C103.741 24.6571 104.087 24.553 104.594 24.462C104.647 24.384 104.647 23.9028 104.554 23.8508C104.167 23.8508 102.914 23.9028 101.715 23.9028C100.728 23.9028 99.502 23.8508 98.8888 23.8508C98.8089 23.8898 98.7555 24.358 98.8089 24.488L98.8222 24.475ZM89.4114 24.462C89.7579 24.501 90.1312 24.5661 90.3578 24.6311C90.691 24.7091 90.8643 24.9562 90.8776 25.4504C90.9176 26.2437 90.9176 27.3491 90.9176 29.1047C90.9176 30.2231 90.9043 32.668 90.8643 33.2402C90.851 33.7994 90.7177 34.0335 90.3311 34.1246C90.0912 34.1766 89.8113 34.2286 89.478 34.2676C89.3847 34.3456 89.4247 34.8138 89.4913 34.8788C89.8779 34.8788 90.7177 34.8268 92.2639 34.8268C93.7302 34.8268 94.6233 34.8788 95.0365 34.8788C95.1432 34.8398 95.1698 34.2806 95.0765 34.2676C94.5967 34.1896 94.4234 34.1766 94.0901 34.0856C93.7036 33.9815 93.5836 33.7604 93.5703 33.2402C93.5569 32.46 93.5303 31.3415 93.5303 30.2101C93.5303 30.1711 93.5703 30.1061 93.6102 30.1061H94.0501C94.3034 30.1191 94.4634 30.2361 94.5833 30.4312C95.1832 31.3936 96.0496 32.9281 96.7961 33.8255C96.9027 33.9945 97.2759 34.3717 97.7291 34.5927C98.4889 34.9179 100.382 35.0089 101.475 34.9179C101.555 34.8658 101.648 34.3196 101.608 34.2676C100.662 34.1636 100.555 34.0986 99.9019 33.4873C98.9955 32.629 97.3026 30.1841 96.9427 29.5209C96.9294 29.4819 96.9427 29.3908 96.956 29.3778C98.1824 28.9096 99.1288 28.0513 99.1288 26.6468C99.1288 25.0212 97.8891 23.8768 95.5964 23.8768C94.5033 23.8768 93.477 23.9288 92.064 23.9288C91.3575 23.9288 89.9046 23.8768 89.4647 23.8768C89.3714 23.9158 89.3314 24.384 89.4114 24.488V24.462ZM94.1834 24.6311C95.6097 24.6311 96.4628 25.6845 96.4628 27.18C96.4628 28.3244 96.1162 28.7926 95.623 29.0267C95.2898 29.2088 94.41 29.2738 93.6236 29.2478C93.5703 29.2478 93.5169 29.1697 93.5169 29.1047C93.5169 26.7118 93.5169 25.3723 93.5569 24.9692C93.5569 24.8912 93.6102 24.7481 93.6902 24.6961C93.8235 24.6441 94.0635 24.6181 94.1968 24.6181L94.1834 24.6311ZM79.0141 24.462C79.3607 24.501 79.7073 24.54 79.9739 24.6311C80.3205 24.7351 80.4538 24.8782 80.4938 25.3984C80.5471 26.0486 80.5471 27.4661 80.5471 28.8056C80.5471 30.8864 80.5471 32.1348 80.4938 33.1752C80.4938 33.7604 80.3071 33.9555 79.9739 34.0465C79.7073 34.1246 79.2541 34.1896 78.6009 34.2806C78.5609 34.3717 78.5609 34.7488 78.6009 34.8918C79.6007 34.8918 80.9603 34.8398 81.9467 34.8398C83.9195 34.8398 85.6924 34.9179 87.2519 34.9179C88.0517 34.9179 88.145 34.7878 88.2117 34.6318C88.5449 34.0205 88.9715 32.3819 89.0648 31.9658C88.9848 31.8747 88.5049 31.7057 88.3716 31.7317C88.0917 32.3689 87.7451 33.0062 87.3852 33.3963C86.972 33.8645 86.7188 33.9425 85.879 33.9425C84.8393 33.9425 83.9328 33.8905 83.5729 33.8125C83.3463 33.7604 83.1864 33.5003 83.1864 33.2142V30.0281C83.1864 29.989 83.2663 29.859 83.3197 29.859C83.8795 29.859 85.3058 29.859 85.639 29.898C86.0123 29.95 86.1589 30.1581 86.2655 30.4182L86.4522 31.1595C86.5455 31.2115 87.0787 31.1985 87.172 31.1465C87.1586 30.6393 87.132 29.807 87.132 29.3128C87.132 28.7276 87.212 27.9863 87.2253 27.5571C87.132 27.4791 86.5721 27.4661 86.4788 27.5181C86.4255 27.7522 86.3855 27.9863 86.3322 28.1684C86.2256 28.6235 86.0523 28.7796 85.6657 28.8056C85.0659 28.8446 83.7862 28.8186 83.3063 28.8186C83.253 28.8186 83.173 28.7406 83.173 28.6756C83.173 27.4401 83.1597 26.3217 83.173 25.1643C83.173 25.0732 83.2663 24.8522 83.3597 24.8392C83.6529 24.8001 85.4524 24.8001 85.9456 24.8522C86.1989 24.8652 86.5188 24.9562 86.7054 25.3203C86.8521 25.6064 86.9454 25.9966 87.052 26.6598C87.1453 26.7118 87.6518 26.6728 87.7585 26.6078C87.8118 25.5934 87.8918 24.436 88.0251 23.8768C88.0251 23.8378 87.9851 23.7988 87.9718 23.7988C87.3186 23.8898 86.2789 23.9028 85.5591 23.9028H81.8267C80.9203 23.9028 79.7473 23.8508 79.0275 23.8508C78.9475 23.9028 78.9208 24.371 78.9875 24.462H79.0141Z" fill="#FEFEFE"/>
<path fill-rule="evenodd" clip-rule="evenodd" d="M46.8228 29.3518H67.6172V30.8474H46.8228V29.3518ZM162.992 29.3518V30.8474H140.291V29.3518H162.992Z" fill="url(#paint1_linear_3114_2739)"/>
</g>
<defs>
<linearGradient id="paint0_linear_3114_2739" x1="11.7445" y1="37.8675" x2="26.5162" y2="-0.122438" gradientUnits="userSpaceOnUse">
<stop stop-color="#FEFEFE"/>
<stop offset="0.270588" stop-color="#898E91"/>
<stop offset="0.458824" stop-color="#FEFEFE"/>
<stop offset="0.580392" stop-color="#65696D"/>
<stop offset="0.690196" stop-color="#FEFEFE"/>
<stop offset="0.8" stop-color="#898E91"/>
<stop offset="0.890196" stop-color="#FEFEFE"/>
<stop offset="1" stop-color="#282829"/>
</linearGradient>
<linearGradient id="paint1_linear_3114_2739" x1="54.6935" y1="49.8801" x2="154.407" y2="8.61093" gradientUnits="userSpaceOnUse">
<stop stop-color="#FEFEFE"/>
<stop offset="0.270588" stop-color="#898E91"/>
<stop offset="0.380392" stop-color="#FEFEFE"/>
<stop offset="0.470588" stop-color="#65696D"/>
<stop offset="0.580392" stop-color="#FEFEFE"/>
<stop offset="0.729412" stop-color="#898E91"/>
<stop offset="0.788235" stop-color="#FEFEFE"/>
<stop offset="1" stop-color="#282829"/>
</linearGradient>
<clipPath id="clip0_3114_2739">
<rect width="163" height="38" fill="white"/>
</clipPath>
</defs>
</svg>
