<svg width="177" height="42" viewBox="0 0 177 42" fill="none" xmlns="http://www.w3.org/2000/svg">
<g clip-path="url(#clip0_2956_2039)">
<path fill-rule="evenodd" clip-rule="evenodd" d="M13.7311 1.81109C16.4813 0.560575 19.6657 0 22.4449 0C25.4845 0 28.4084 0.143737 31.4336 0.445585C31.9981 0.50308 32.5627 0.560575 33.1272 0.61807C33.3877 0.646817 33.6048 0.761807 33.7641 0.977413C33.9233 1.17864 33.9812 1.423 33.9233 1.68172C33.9088 1.76797 33.8943 1.85421 33.8798 1.94045L33.8509 2.14168C33.793 2.42916 33.7496 2.73101 33.7062 3.03285L34.2707 1.48049C34.4009 1.12115 34.7339 0.89117 35.1247 0.89117H41.3633C41.8554 0.89117 42.2607 1.29363 42.2607 1.78234V3.20534C42.2607 3.6653 41.9133 4.05339 41.4356 4.09651C40.1329 4.2115 39.1052 5.31828 39.1052 6.62628V34.8419C39.1052 36.1499 40.1184 37.2567 41.4356 37.3717C41.8988 37.4148 42.2607 37.8029 42.2607 38.2628V39.6858C42.2607 40.1745 41.8554 40.577 41.3633 40.577H30.7533C30.377 40.577 30.0441 40.347 29.9138 40.0021C29.8125 39.729 29.8414 39.4415 30.0006 39.1971C29.1756 39.7146 28.3071 40.1458 27.4097 40.4908C24.8332 41.5832 21.9817 42 19.1881 42C15.8589 42 12.4863 41.4682 9.41767 40.117H9.43214C9.41767 40.117 9.41767 40.1027 9.40319 40.1027L9.34529 40.0739C9.33082 40.0739 9.33082 40.0595 9.31635 40.0595L9.2295 40.0164C9.2295 40.0164 9.21502 40.0164 9.21502 40.0021L9.1137 39.9589L9.04133 39.9158L8.96895 39.8727C8.83868 39.8008 8.72288 39.7146 8.63604 39.5852C8.60709 39.5565 8.59261 39.5133 8.56366 39.4846L8.54919 39.4702C8.53471 39.4415 8.52024 39.4127 8.50576 39.384L8.46234 39.3121L8.44787 39.2834C8.44787 39.269 8.44787 39.269 8.43339 39.2546V39.6571C8.43339 39.9014 8.34654 40.117 8.17285 40.2895C7.99915 40.462 7.78203 40.5483 7.53596 40.5483H0.935515C0.443377 40.5483 0.0380859 40.1458 0.0380859 39.6571V38.2341C0.0380859 37.7741 0.385478 37.386 0.863142 37.3429C2.16586 37.2279 3.19356 36.1212 3.19356 34.8131V6.59754C3.19356 5.28953 2.18034 4.18275 0.863142 4.06776C0.399953 4.02464 0.0380859 3.63655 0.0380859 3.17659V1.75359C0.0380859 1.26489 0.443377 0.862423 0.935515 0.862423H12.8482C13.239 0.862423 13.5574 1.0924 13.6877 1.45175C13.7311 1.56674 13.7456 1.6961 13.7456 1.81109H13.7311ZM29.1322 18.1684C29.0164 18.0103 28.9585 17.8234 28.9729 17.6222L29.0308 15.2218C29.0308 13.2669 29.0887 11.1971 28.669 9.27105C28.5098 8.56674 28.1334 7.93429 27.8294 7.30185C27.7571 7.15811 27.7281 7 27.7426 6.85626C27.3228 6.65503 26.9031 6.4538 26.4688 6.31006C26.107 6.1807 25.8754 5.86448 25.8754 5.49076L25.8609 4.62834C25.7596 4.59959 25.6438 4.57084 25.5424 4.54209L25.0793 5.27515C24.8766 5.59138 24.5147 5.74949 24.1384 5.67762C23.5739 5.56263 22.9949 5.49076 22.4159 5.44764C22.0396 5.41889 21.7356 5.17454 21.6198 4.80082L21.3737 3.96715C21.2869 3.96715 21.2145 3.96715 21.1277 3.96715C21.0987 3.96715 21.0698 3.96715 21.0408 3.96715L20.7948 4.80082C20.679 5.16016 20.375 5.40452 19.9986 5.43327C19.4341 5.47639 18.8696 5.54825 18.3196 5.64887C17.9432 5.72074 17.5814 5.56263 17.3932 5.23203L16.9445 4.49897C16.8432 4.52772 16.7274 4.55647 16.6261 4.58522L16.5971 5.44764C16.5826 5.82136 16.351 6.13758 16.0036 6.26694C15.7865 6.35318 15.5405 6.49692 15.3233 6.59754C15.1641 6.68378 14.9759 6.77002 14.8022 6.85626C14.8457 7.07187 14.8312 7.28747 14.7154 7.50308C13.818 9.06982 13.8035 11.0678 14.4838 12.7064C15.3089 14.6756 16.9879 15.9117 19.0867 16.2998C20.7658 16.6016 22.5607 16.6304 24.2687 16.846C25.9767 17.0616 27.6413 17.4353 29.1611 18.2115L29.1322 18.1684ZM10.8651 22.4805C11.4586 23.1704 12.11 23.731 12.7758 24.1047C13.0653 24.2628 13.239 24.5503 13.239 24.8809V33.922C13.239 34.2669 13.0653 34.5544 12.7613 34.7125C12.6889 34.7556 12.6021 34.7844 12.5152 34.7988L12.3271 35.575C12.4284 35.6324 12.5152 35.6899 12.6166 35.7474L13.2535 35.1581C13.5285 34.8994 13.9193 34.8419 14.2667 35.0144C14.7733 35.2587 15.2944 35.4743 15.8299 35.6756C16.1918 35.8049 16.4234 36.1212 16.4234 36.4949L16.4379 37.3573C16.5392 37.386 16.655 37.4148 16.7563 37.4435L17.2195 36.7105C17.4222 36.3943 17.784 36.2361 18.1604 36.308C18.7249 36.423 19.3039 36.4949 19.8829 36.538C20.2592 36.5667 20.5632 36.8111 20.679 37.1848L20.925 38.0185C21.0119 38.0185 21.0842 38.0185 21.1711 38.0185C21.2 38.0185 21.229 38.0185 21.2579 38.0185L21.504 37.1992C21.6198 36.8398 21.9238 36.5955 22.3001 36.5667C22.8646 36.5236 23.4291 36.4517 23.9792 36.3511C24.3555 36.2793 24.7174 36.4374 24.9056 36.768L25.3543 37.501C25.4556 37.4723 25.5714 37.4435 25.6727 37.4148L25.7017 36.5524C25.7161 36.1786 25.9477 35.8624 26.3096 35.7331C26.7149 35.5893 27.1202 35.4312 27.511 35.2587C27.4965 35.0575 27.5399 34.8563 27.6557 34.6838C28.5387 33.3614 29.1322 31.7947 28.9585 30.1848C28.8282 29.0205 28.2926 27.9281 27.4386 27.1232C27.1781 26.8789 26.9031 26.6776 26.5991 26.4908C24.6016 25.2834 21.5185 25.2259 19.246 25.0678C16.7129 24.8809 14.0206 24.5934 11.8494 23.1848C11.5165 22.9692 11.1981 22.7392 10.8941 22.4949L10.8651 22.4805ZM21.1421 20.3101C20.7658 20.3101 20.4618 20.6119 20.4618 20.9856C20.4618 21.3593 20.7658 21.6612 21.1421 21.6612C21.5185 21.6612 21.8225 21.3593 21.8225 20.9856C21.8225 20.6119 21.5185 20.3101 21.1421 20.3101Z" fill="#65696D"/>
<path fill-rule="evenodd" clip-rule="evenodd" d="M0.906494 1.76791H12.8191C10.5466 3.67961 7.86881 6.31 7.86881 9.86031C7.86881 9.88906 7.86881 9.91781 7.86881 9.94656C7.88328 9.88906 7.89776 9.83156 7.89776 9.7597L7.91223 9.71658C7.94118 9.60159 7.95565 9.50097 7.9846 9.40035L7.99908 9.35723C8.0425 9.18475 8.08593 8.99789 8.14383 8.82541L8.1583 8.78228C9.82289 3.3059 16.6983 0.891113 22.4448 0.891113C27.3228 0.891113 29.9282 1.17859 33.0258 1.49481C33.0113 1.58105 32.9968 1.66729 32.9823 1.76791L32.9679 1.83978V1.86853L32.9534 1.95477V1.96914C32.5336 4.41267 32.2876 6.94245 32.0994 9.41473V9.47222V9.57284V9.65908V9.73095L32.0849 9.83156V9.87469L32.0704 10.0041V10.0328L32.056 10.1909L35.1246 1.76791H41.3632V3.19091C39.6117 3.34902 38.2222 4.82951 38.2222 6.61185V34.8275C38.2222 36.6098 39.6117 38.0903 41.3632 38.2484V39.6714H30.7532C32.91 37.7597 34.9798 34.77 34.9798 31.3203C34.9798 31.2915 34.9798 31.2628 34.9798 31.234C33.9521 35.3162 30.5651 38.3346 27.0622 39.657C24.891 40.5769 22.2566 41.1088 19.1735 41.1088C15.9022 41.1088 12.6744 40.5913 9.77946 39.2977H9.76499H9.75051L9.69261 39.2689H9.67814H9.66366H9.64919L9.59129 39.2402H9.57682L9.51892 39.2114H9.50444H9.48997L9.4176 39.1827L9.34522 39.1396C9.33075 39.1252 9.33075 39.1108 9.31627 39.0965V39.0821C9.3018 39.0677 9.3018 39.0533 9.28732 39.039L9.27285 39.0102L9.25837 38.9671L9.2439 38.9383L9.21495 38.8808V38.8665C9.20048 38.8377 9.20048 38.8234 9.186 38.7946L9.17153 38.7659L9.15705 38.7084L9.14258 38.6796L9.11363 38.6221L9.09915 38.5934L9.0702 38.5215L9.05573 38.4928C9.04125 38.464 9.02678 38.4209 9.02678 38.3921V38.3778L8.99783 38.2771L8.98336 38.234L8.95441 38.1622C8.38989 36.3223 8.01355 34.2094 7.70959 32.3121V32.2977L7.68064 32.1396V32.1252L7.65169 31.9815L7.63721 31.9383L7.62274 31.8377L7.60826 31.7515L7.59379 31.6796L7.57931 31.5646V31.5359L7.56484 31.3921L7.55036 31.2484V31.2197L7.53589 31.1047V31.0759L7.52141 30.9897L7.50694 30.9034L7.49247 30.8172L7.47799 30.6878V30.6735L7.53589 39.7289H0.935443V38.3059C2.68688 38.1478 4.07645 36.6673 4.07645 34.885V6.66935C4.07645 4.88701 2.68688 3.40651 0.935443 3.2484V1.8254L0.906494 1.76791ZM34.7483 27.2381C33.8363 23.0698 31.6796 20.8706 29.5518 19.462C26.2806 17.2915 21.9092 17.7084 18.884 17.1478C13.4705 16.156 11.9072 10.4928 13.8903 7.02869C13.9192 6.9712 13.2389 6.23814 12.9349 5.73506C12.877 5.64881 11.777 5.90754 11.5454 5.99378C12.052 5.62007 12.877 5.17448 12.906 5.20323L14.0784 6.12315C14.1508 6.18064 15.4246 5.4907 15.6851 5.40446L15.6996 5.16011L15.743 3.89522C16.2786 3.72274 16.8286 3.59337 17.3787 3.46401L18.0445 4.54204L18.1748 4.75764C18.7538 4.65703 19.3472 4.57078 19.9407 4.52766L20.013 4.28331L20.3749 3.07592C20.6355 3.06154 20.8815 3.06154 21.1421 3.06154C21.446 3.06154 21.7645 3.07592 22.0685 3.09029L22.4303 4.29768L22.5027 4.54204C23.1251 4.58516 23.7186 4.6714 24.3265 4.78639L24.4568 4.57078L25.1371 3.49276C25.6871 3.62212 26.2372 3.76586 26.7582 3.93834L26.7872 5.20323V5.44758C27.3228 5.63444 27.8873 5.92191 28.3939 6.16627L29.5808 5.26072L30.8835 6.05128C30.8256 6.13752 29.5663 5.70631 29.494 5.80692C29.2479 6.20939 28.611 6.85621 28.6399 6.9137C28.9584 7.54614 29.3782 8.25046 29.5518 9.08413C30.015 11.1396 29.9427 13.6406 29.9427 15.2217L29.8848 17.6509C32.8086 19.3038 35.472 23.6878 34.8206 26.7351C34.7917 26.8932 34.7917 27.0657 34.7772 27.2381H34.7483ZM28.3794 35.2012L29.4216 36.1642L30.7243 36.0923L29.19 36.8254L28.4084 36.0923L28.2347 35.9199C27.6991 36.1786 27.1491 36.3942 26.5845 36.5954L26.5701 36.8398L26.5266 38.1047C25.9911 38.2771 25.441 38.4065 24.891 38.5359L24.2252 37.4578L24.0949 37.2422C23.5159 37.3429 22.9225 37.4291 22.3145 37.4722L22.2421 37.7166L21.8803 38.924C21.6197 38.9383 21.3737 38.9383 21.1131 38.9383C20.8092 38.9383 20.4907 38.924 20.1867 38.9096L19.8249 37.7022L19.7525 37.4578C19.1301 37.4147 18.5366 37.3285 17.9287 37.2135L17.7984 37.4291L17.1181 38.5071C16.5681 38.3778 16.018 38.234 15.497 38.0615L15.468 36.7967V36.5523C14.9035 36.3511 14.3535 36.1211 13.8179 35.8624L13.6297 36.0349L12.7033 36.8973C12.1967 36.6385 11.7191 36.3511 11.2414 36.0492L11.5454 34.8275L11.6033 34.5831C11.444 34.4681 11.2848 34.3675 11.1401 34.2525L10.1848 33.3326L8.85308 34.1231L10.315 32.6139L12.2981 33.9794V24.9383C9.47549 23.3572 7.34772 19.2751 7.59379 16.4435C7.63721 15.9404 7.62274 15.4517 7.69511 14.9917C8.23067 18.5995 10.069 21.0287 12.2691 22.4804C16.8431 25.4702 24.2252 23.0123 27.9886 26.5338C29.8269 28.2443 30.8401 31.5503 28.3505 35.2443L28.3794 35.2012ZM21.1421 19.4332C22.0106 19.4332 22.7198 20.1375 22.7198 20.9999C22.7198 21.8624 22.0106 22.5667 21.1421 22.5667C20.2736 22.5667 19.5643 21.8624 19.5643 20.9999C19.5643 20.1375 20.2736 19.4332 21.1421 19.4332Z" fill="url(#paint0_linear_2956_2039)"/>
<path fill-rule="evenodd" clip-rule="evenodd" d="M0.906635 1.76791H12.8193C12.6456 1.91165 12.4864 2.05538 12.3127 2.2135H1.35535V3.26278C1.2106 3.23403 1.06586 3.20528 0.906635 3.19091V1.76791ZM10.0401 5.50508C12.9061 2.32848 18.0157 0.891113 22.4305 0.891113C27.3084 0.891113 29.9139 1.17859 33.0114 1.49481C32.997 1.58105 32.9825 1.66729 32.968 1.76791L32.9535 1.83978V1.86853V1.8829C30.0731 1.59543 27.4966 1.3367 22.8792 1.3367C17.1472 1.3367 9.93883 3.75148 8.27424 9.22787L8.25976 9.27099C8.20187 9.44347 8.15844 9.61596 8.11502 9.80282L8.10054 9.84594C8.07159 9.94655 8.05712 10.0615 8.02817 10.1622L8.01369 10.2053C7.99922 10.2628 7.98475 10.3203 7.98475 10.3921C7.98475 10.3634 7.98475 10.3346 7.98475 10.3059C7.98475 8.48044 9.02692 6.88495 10.0257 5.51945L10.0401 5.50508ZM35.0813 1.76791H41.3199V2.2135H35.5156L31.9837 10.4496L31.9982 10.2915V10.2628L32.0127 10.1334V10.0903L32.0272 9.98968V9.91781L32.0416 9.74532V9.68783L35.0668 1.78228L35.0813 1.76791ZM39.4237 37.4578C39.9448 37.8891 40.6106 38.1765 41.3199 38.2484V38.6221C40.5672 38.4496 39.9014 38.0328 39.4237 37.4722V37.4578ZM31.6219 39.6714H30.71C33.0259 37.6303 34.6181 35.3305 34.951 31.5359C35.1103 34.6119 33.7931 37.5728 31.6219 39.6714ZM1.3264 39.6714H0.877686V38.2484C2.62912 38.0903 4.01869 36.6098 4.01869 34.8275V6.61185C4.01869 5.77818 3.71472 5.01637 3.20811 4.41267C3.97526 5.04512 4.45293 5.99378 4.45293 7.04306V35.2587C4.45293 37.041 3.06336 38.5215 1.31193 38.6796V39.6714H1.3264ZM31.6942 21.2587C30.9995 20.54 30.2613 19.9507 29.523 19.462C26.2518 17.2915 21.8804 17.7084 18.8552 17.1478C17.3933 16.8747 16.2064 16.271 15.2945 15.4373C16.2498 16.4722 17.5814 17.2628 19.3039 17.579C22.3147 18.1396 26.686 17.7227 29.9718 19.8932C30.5507 20.2813 31.1297 20.7268 31.6942 21.2443V21.2587ZM30.4784 6.02253C30.2757 5.97941 30.0152 5.90754 29.7981 5.85005L28.8572 6.56873C28.698 6.75559 28.5822 6.89933 28.5967 6.9137C28.9151 7.54614 29.3349 8.25046 29.5086 9.08413C29.9718 11.1396 29.8994 13.6406 29.8994 15.2217L29.8415 17.6509C29.9862 17.7371 30.1455 17.8234 30.2902 17.924L30.3481 15.6529C30.3481 14.0718 30.4205 11.5708 29.9573 9.51534C29.7691 8.68167 29.3493 7.97736 29.0454 7.34491C29.0164 7.28742 29.6533 6.6406 29.8994 6.23814C29.9573 6.13752 31.2311 6.56873 31.289 6.48249L30.4928 5.99378L30.4784 6.02253ZM31.9114 19.3038C33.7931 21.273 35.284 24.004 34.7484 26.9794C35.53 24.9958 35.5011 22.3223 31.9114 19.3038ZM28.3651 35.1868L28.8283 35.6036C31.3034 31.924 30.2902 28.6324 28.4519 26.9075C28.423 26.8788 28.3795 26.85 28.3506 26.8213C29.9573 28.618 30.6955 31.7227 28.3651 35.1868ZM29.7836 36.5236L29.1757 36.811L28.394 36.078L28.2059 35.9055C27.6703 36.1642 27.1203 36.3798 26.5557 36.5811L26.5413 36.8254L26.4978 38.0903C26.0202 38.234 25.5136 38.3778 25.0214 38.4784L25.3109 38.9527C25.861 38.8377 26.411 38.694 26.9466 38.5215L26.99 37.2566L27.0045 37.0123C27.569 36.811 28.119 36.5954 28.6546 36.3367L28.8283 36.5092L29.6099 37.2422L31.1442 36.5092L29.8415 36.5811L29.7691 36.5236H29.7836ZM24.3701 37.6878L24.2108 37.4291L24.0806 37.2135C23.5016 37.3141 22.9081 37.4004 22.3147 37.4435L22.2423 37.6878L21.8804 38.8952C21.6199 38.9096 21.3738 38.9096 21.1133 38.9096C20.9106 38.9096 20.708 38.9096 20.5053 38.8952L20.6356 39.3264C20.9396 39.3408 21.2435 39.3552 21.562 39.3552C21.8225 39.3552 22.0686 39.3552 22.3291 39.3408L22.691 38.1334L22.7634 37.8891C23.3134 37.8459 23.849 37.7884 24.3845 37.6878H24.3701ZM19.8829 37.8459L19.8395 37.6735L19.7671 37.4291C19.1447 37.386 18.5513 37.2997 17.9433 37.1847L17.813 37.4004L17.1327 38.4784C16.7274 38.3921 16.3366 38.2915 15.9458 38.1622V38.464C16.4814 38.6365 17.0169 38.7802 17.567 38.9096L18.2473 37.8316L18.3776 37.616C18.8697 37.7166 19.3618 37.7884 19.8684 37.8316L19.8829 37.8459ZM15.4826 36.7967V36.7679V36.5236C14.9181 36.3223 14.3681 36.0923 13.8325 35.8336L13.6443 36.0061L12.718 36.8685C12.385 36.696 12.0521 36.5092 11.7337 36.3223L11.7047 36.4661C12.1824 36.7679 12.6601 37.0554 13.1667 37.3141L14.0931 36.4517L14.2812 36.2792C14.672 36.4661 15.0773 36.6529 15.4971 36.811L15.4826 36.7967ZM22.4305 20.1231C22.5897 20.3675 22.691 20.6693 22.691 20.9856C22.691 21.848 21.9817 22.5523 21.1133 22.5523C20.7948 22.5523 20.4909 22.4517 20.2448 22.2936C20.5343 22.7104 21.0119 22.9979 21.562 22.9979C22.4305 22.9979 23.1397 22.2936 23.1397 21.4312C23.1397 20.885 22.8647 20.4106 22.4305 20.1231Z" fill="#FEFEFE"/>
<path d="M176.036 7.56062C175.833 5.89327 175.674 4.78649 175.558 3.79471C174.849 3.56473 173.488 3.14789 171.954 3.14789C168.321 3.14789 166.091 5.36144 166.091 8.13557C166.091 10.8378 168.321 12.2177 170.651 13.4107C172.692 14.4456 173.98 15.4087 173.98 17.1335C173.98 18.9302 172.88 20.0945 171.071 20.0945C168.407 20.0945 166.96 17.2054 166.497 15.5524L165.628 15.8111C165.787 17.2629 166.149 19.5483 166.381 20.1807C166.67 20.3101 167.134 20.5113 167.872 20.7269C168.581 20.9569 169.522 21.115 170.535 21.115C174.328 21.115 176.846 18.8296 176.846 15.8974C176.846 13.1376 174.675 11.7721 172.142 10.5504C169.869 9.4292 168.74 8.55241 168.74 6.9138C168.74 5.43331 169.782 4.1828 171.534 4.1828C173.763 4.1828 174.675 6.10887 175.167 7.76185L176.036 7.57499V7.56062ZM69.9797 3.53598H62.3371V4.41278C64.407 4.57089 64.6096 4.729 64.6096 6.95692V10.9528H56.4169V6.95692C56.4169 4.729 56.6196 4.57089 58.6171 4.41278V3.53598H51.0034V4.41278C53.1167 4.57089 53.3628 4.729 53.3628 6.95692V17.306C53.3628 19.5196 53.1312 19.6777 51.0903 19.8789V20.7126H58.7039V19.8789C56.6341 19.6777 56.4314 19.5196 56.4314 17.306V12.2321H64.6241V17.306C64.6241 19.5196 64.4214 19.6777 62.1923 19.8789V20.7126H69.9942V19.8789C67.8953 19.6777 67.6638 19.5196 67.6638 17.306V6.95692C67.6638 4.729 67.8519 4.57089 69.9942 4.41278V3.53598H69.9797ZM84.5557 16.2136C84.107 17.3635 83.5859 18.2403 83.1227 18.7865C82.5003 19.4621 81.6029 19.6489 79.9527 19.6489C78.8237 19.6489 77.8539 19.6202 77.3907 19.3614C76.8696 19.074 76.7394 18.4559 76.7394 17.2054V12.4764H78.8527C81.1541 12.4764 81.4436 12.6058 81.7766 14.5031H82.6595V9.28547H81.7766C81.4292 11.1109 81.1686 11.2834 78.8527 11.2834H76.7394V5.4908C76.7394 4.68588 76.8117 4.59963 77.7381 4.59963H79.3882C81.0673 4.59963 81.7766 4.78649 82.2108 5.30395C82.6306 5.85015 82.949 6.58321 83.2095 7.60374L84.0925 7.47438C83.9912 5.93639 83.8899 4.11093 83.8609 3.53598H71.4561V4.3984C73.4391 4.58526 73.6852 4.68588 73.6852 7.04317V17.2916C73.6852 19.5052 73.4536 19.6777 71.0653 19.8933V20.7269H84.5123C84.7149 19.922 85.2649 17.4785 85.4531 16.4148L84.5702 16.228L84.5557 16.2136ZM91.2864 12.2896V5.85015C91.2864 5.23208 91.3588 4.9446 91.5469 4.78649C91.7351 4.62838 92.1259 4.52776 92.8497 4.52776C94.5722 4.52776 96.3236 5.5483 96.3236 8.39429C96.3236 9.77417 95.9328 10.8091 94.9919 11.5853C94.3406 12.1027 93.4431 12.2896 92.1983 12.2896H91.2864ZM102.36 20.1664C101.752 19.9651 101.23 19.6489 100.608 19.0021C100.058 18.384 99.4501 17.5935 98.5093 16.1417C97.6987 14.9775 96.6565 13.2095 96.2078 12.3758C98.0895 11.6284 99.5804 10.2916 99.5804 8.0062C99.5804 6.3676 98.8711 5.20333 97.8 4.49902C96.7578 3.76596 95.4117 3.53598 93.226 3.53598H86.0611V4.41278C88.073 4.57089 88.3046 4.77212 88.3046 6.92818V17.2485C88.3046 19.4621 88.0151 19.6633 85.9453 19.8789V20.7126H93.6168V19.8789C91.518 19.6777 91.2864 19.4621 91.2864 17.2485V13.267H91.9088C93.0089 13.267 93.4721 13.612 93.9497 14.3594C94.7314 15.7105 95.542 17.2198 96.3381 18.4128C97.496 20.1089 98.5672 20.7844 101.361 20.8851C101.679 20.9138 102.012 20.9425 102.229 20.9425L102.36 20.1664ZM116.284 15.8543C114.895 18.5565 113.331 19.9795 110.813 19.9795C106.919 19.9795 104.111 16.7023 104.111 11.8152C104.111 7.86247 106.355 4.22592 110.581 4.22592C113.071 4.22592 114.981 5.24645 115.763 8.25056L116.675 8.0637C116.516 6.48259 116.328 5.30395 116.067 3.82345C115.358 3.69409 113.404 3.11914 111.204 3.11914C104.893 3.11914 100.579 6.84193 100.579 12.3183C100.579 16.5298 103.561 21.0719 110.581 21.0719C112.463 21.0719 114.895 20.5545 115.604 20.3676C116.081 19.4908 116.776 17.4641 117.153 16.1848L116.284 15.8255V15.8543ZM135.955 3.53598H129.34V4.41278C131.193 4.51339 131.83 4.95898 131.989 5.92202C132.119 6.72694 132.221 7.7906 132.221 9.87479V12.2896C132.221 16.7023 130.889 19.4333 127.386 19.4333C124.274 19.4333 122.682 17.0616 122.682 12.9651V7.17253C122.682 4.729 122.971 4.57089 124.983 4.41278V3.53598H117.341V4.41278C119.411 4.59963 119.642 4.729 119.642 7.17253V13.4826C119.642 16.6017 120.395 18.5709 121.973 19.7495C123.203 20.7413 124.853 21.1007 126.547 21.1007C128.399 21.1007 130.238 20.4826 131.439 19.2033C132.988 17.5935 133.451 15.3512 133.451 12.3902V9.87479C133.451 7.7906 133.552 6.72694 133.654 5.97951C133.784 4.97335 134.435 4.49902 135.955 4.42715V3.55035V3.53598ZM149.127 16.113C148.635 17.4066 148.157 18.269 147.665 18.8152C147.057 19.4908 146.102 19.6489 144.785 19.6489C143.844 19.6489 143.033 19.6202 142.556 19.3902C142.035 19.1315 141.904 18.6571 141.904 17.3347V6.98567C141.904 4.70025 142.165 4.57089 144.235 4.41278V3.53598H136.52V4.41278C138.633 4.57089 138.879 4.729 138.879 6.98567V17.2485C138.879 19.5052 138.619 19.6633 136.288 19.8789V20.7126H149.026C149.257 19.9651 149.807 17.3635 149.996 16.343L149.127 16.113ZM163.761 16.2136C163.312 17.3635 162.791 18.2403 162.328 18.7865C161.706 19.4621 160.808 19.6489 159.158 19.6489C158.029 19.6489 157.059 19.6202 156.596 19.3614C156.075 19.074 155.945 18.4559 155.945 17.2054V12.4764H158.058C160.359 12.4764 160.649 12.6058 160.982 14.5031H161.865V9.28547H160.982C160.649 11.1109 160.374 11.2834 158.058 11.2834H155.945V5.4908C155.945 4.68588 156.017 4.59963 156.943 4.59963H158.594C160.273 4.59963 160.982 4.78649 161.416 5.30395C161.836 5.85015 162.154 6.58321 162.415 7.60374L163.298 7.47438C163.197 5.93639 163.095 4.11093 163.066 3.53598H150.661V4.3984C152.644 4.58526 152.891 4.68588 152.891 7.04317V17.2916C152.891 19.5052 152.659 19.6777 150.271 19.8933V20.7269H163.718C163.92 19.922 164.47 17.4785 164.658 16.4148L163.776 16.228L163.761 16.2136Z" fill="#FEFEFE"/>
<path d="M76.5513 34.77C76.4355 34.7125 75.8999 34.8706 75.842 34.9856C75.8565 35.6899 76.2618 37.8891 76.4934 38.2053C77 38.4641 78.2304 38.8521 79.6199 38.8521C82.7465 38.8521 84.4545 37.156 84.4545 35.0287C84.4545 33.5914 83.7886 32.7002 82.2977 31.7803C81.4293 31.2628 80.9226 30.961 80.0542 30.4148C79.2291 29.8542 78.8093 29.308 78.8093 28.4743C78.8093 27.54 79.4752 26.7926 80.5463 26.7926C81.1687 26.7926 81.6319 26.9076 82.0517 27.2526C82.5293 27.5975 82.8044 28.1725 82.9781 29.3942C83.0794 29.4517 83.586 29.4517 83.6873 29.3511C83.7742 28.1006 83.89 27.1663 84.0347 26.4045C83.0504 26.3039 82.2254 26.0452 80.6621 26.0452C78.3462 26.0452 76.3631 27.3101 76.3631 29.6673C76.3631 31.7947 77.8106 32.7146 79.5331 33.7782C81.4148 34.9137 81.7911 35.5174 81.7911 36.4661C81.7911 37.4723 81.0384 38.0328 80.0976 38.0328C79.5186 38.0328 78.7804 37.8747 78.2593 37.4866C77.5066 36.9261 76.9855 36.1499 76.5513 34.77ZM141.094 27.037C141.47 27.0801 141.847 27.1232 142.136 27.2238C142.512 27.3388 142.657 27.4969 142.701 28.0719C142.758 28.7905 142.758 30.3573 142.758 31.8378C142.758 34.1376 142.758 35.5174 142.701 36.6673C142.701 37.3142 142.498 37.5298 142.136 37.6304C141.847 37.7166 141.354 37.7885 140.645 37.8891C140.602 37.9897 140.602 38.4066 140.645 38.5647C141.731 38.5647 143.207 38.5072 144.278 38.5072C146.421 38.5072 148.346 38.5934 150.039 38.5934C150.908 38.5934 151.009 38.4497 151.081 38.2772C151.443 37.6016 151.906 35.7905 152.008 35.3306C151.921 35.23 151.4 35.0431 151.255 35.0719C150.951 35.7762 150.575 36.4805 150.184 36.9117C149.735 37.4291 149.46 37.5154 148.548 37.5154C147.419 37.5154 146.435 37.4579 146.044 37.3717C145.798 37.3142 145.624 37.0267 145.624 36.7105V33.1889C145.624 33.1458 145.711 33.002 145.769 33.002C146.377 33.002 147.926 33.002 148.288 33.0452C148.693 33.1027 148.852 33.3326 148.968 33.6201L149.171 34.4394C149.272 34.4969 149.851 34.4825 149.952 34.425C149.938 33.8645 149.909 32.9445 149.909 32.3983C149.909 31.7515 149.996 30.9322 150.01 30.4579C149.909 30.3717 149.301 30.3573 149.2 30.4148C149.142 30.6735 149.098 30.9322 149.04 31.1335C148.925 31.6365 148.736 31.809 148.317 31.8378C147.665 31.8809 146.276 31.8521 145.755 31.8521C145.697 31.8521 145.61 31.7659 145.61 31.694C145.61 30.3285 145.595 29.0924 145.61 27.8131C145.61 27.7125 145.711 27.4682 145.813 27.4538C146.131 27.4107 148.085 27.4107 148.621 27.4682C148.896 27.4825 149.243 27.5832 149.446 27.9856C149.605 28.3018 149.706 28.7331 149.822 29.4661C149.923 29.5236 150.473 29.4805 150.589 29.4086C150.647 28.2875 150.734 27.0082 150.879 26.3901C150.879 26.347 150.835 26.3039 150.821 26.3039C150.112 26.4045 148.983 26.4189 148.201 26.4189H144.148C143.164 26.4189 141.89 26.3614 141.108 26.3614C141.021 26.4189 140.993 26.9363 141.065 27.037H141.094ZM138.517 29.7823C138.561 29.8829 139.183 29.8398 139.27 29.7248C139.27 28.6612 139.473 27.0082 139.588 26.3758C138.677 26.3326 137.07 26.0595 135.492 26.0595C133.813 26.0595 132.481 26.3614 131.396 26.9076C129.181 27.9856 128.096 30.0986 128.096 32.3409C128.096 36.6817 130.773 38.8665 135.289 38.8665C136.766 38.8665 137.649 38.579 138.315 38.3922C138.879 38.0185 139.704 36.3942 139.95 35.5893C139.849 35.4025 139.502 35.2156 139.342 35.1725C138.894 35.9343 138.315 36.7392 137.808 37.1704C137.2 37.7166 136.433 37.7885 135.854 37.7885C132.612 37.7885 131.396 34.8706 131.396 32.1396C131.396 28.5174 132.872 26.8788 135 26.8788C135.811 26.8788 136.607 26.9795 137.359 27.3963C138.17 27.8706 138.3 28.6324 138.503 29.7967L138.517 29.7823ZM121.958 27.037C122.422 27.0944 122.682 27.1376 123.073 27.2382C123.42 27.3532 123.551 27.6406 123.579 28.0575C123.637 28.9199 123.637 29.8829 123.637 31.9959C123.637 33.6201 123.637 35.9199 123.594 36.6242C123.536 37.4291 123.406 37.5873 122.885 37.7022C122.668 37.7454 122.378 37.8029 121.958 37.8604C121.857 37.9466 121.857 38.4641 121.958 38.5359C122.725 38.5359 123.333 38.4784 125.143 38.4784C126.576 38.4784 127.343 38.5216 128.168 38.5359C128.255 38.4784 128.327 37.961 128.269 37.8604C127.864 37.7741 127.357 37.7166 127.126 37.6448C126.561 37.501 126.547 37.0411 126.518 36.6817C126.474 35.9055 126.503 34.4394 126.503 32.0103C126.503 30.2854 126.489 28.8624 126.518 28.2443C126.532 27.6694 126.561 27.3819 126.996 27.2238C127.256 27.1376 127.647 27.0801 128.038 27.0226C128.125 26.922 128.096 26.4189 128.038 26.347C127.618 26.347 126.923 26.4045 124.969 26.4045C123.579 26.4045 122.697 26.347 121.958 26.347C121.871 26.4333 121.871 26.922 121.944 27.0226L121.958 27.037ZM107.31 27.0513C107.715 27.1088 107.918 27.1519 108.178 27.2382C108.844 27.425 109.119 27.8419 109.771 29.3367C110.379 30.7597 111.276 33.0883 112.376 35.848C112.796 36.8829 113.129 37.7885 113.404 38.6509C113.853 38.6078 114.75 38.6078 115.155 38.6509C115.343 38.0472 115.633 37.1273 116.197 35.7618C117.225 33.2608 118.412 30.4148 119.063 28.9343C119.469 28.0287 119.715 27.5975 120.236 27.3101C120.438 27.1951 120.815 27.1088 121.278 27.037C121.365 26.8932 121.321 26.4189 121.264 26.3614C120.8 26.3614 120.178 26.4189 118.861 26.4189C117.413 26.4189 116.704 26.3326 116.357 26.3326C116.27 26.3901 116.212 26.9076 116.27 27.037C116.791 27.0944 117.24 27.1951 117.544 27.2813C118.094 27.4394 118.151 27.8419 117.92 28.5031C117.558 29.7823 115.937 33.9363 115.401 35.0719C115.358 35.115 115.3 35.0862 115.285 35.0719C114.822 34.0082 112.825 29.0636 112.42 27.8994C112.333 27.6406 112.376 27.4538 112.506 27.3532C112.651 27.2526 113.027 27.1376 113.577 27.037C113.635 26.9507 113.635 26.4189 113.534 26.3614C113.114 26.3614 111.754 26.4189 110.451 26.4189C109.38 26.4189 108.048 26.3614 107.382 26.3614C107.295 26.4045 107.238 26.922 107.295 27.0657L107.31 27.0513ZM97.0908 27.037C97.4672 27.0801 97.8725 27.1519 98.1185 27.2238C98.4804 27.3101 98.6686 27.5832 98.6831 28.1294C98.7265 29.0062 98.7265 30.2279 98.7265 32.1684C98.7265 33.4045 98.712 36.1068 98.6686 36.7392C98.6541 37.3573 98.5094 37.616 98.0896 37.7166C97.8291 37.7741 97.5251 37.8316 97.1632 37.8747C97.0619 37.961 97.1053 38.4784 97.1777 38.5503C97.5975 38.5503 98.5094 38.4928 100.188 38.4928C101.781 38.4928 102.75 38.5503 103.199 38.5503C103.315 38.5072 103.344 37.8891 103.243 37.8747C102.721 37.7885 102.533 37.7741 102.171 37.6735C101.752 37.5585 101.621 37.3142 101.607 36.7392C101.592 35.8768 101.564 34.6406 101.564 33.3901C101.564 33.347 101.607 33.2751 101.65 33.2751H102.128C102.403 33.2895 102.577 33.4189 102.707 33.6345C103.358 34.6981 104.299 36.3942 105.11 37.386C105.226 37.5729 105.631 37.9897 106.123 38.2341C106.948 38.5934 109.003 38.694 110.19 38.5934C110.277 38.5359 110.379 37.9322 110.335 37.8747C109.307 37.7597 109.192 37.6879 108.482 37.0123C107.498 36.0636 105.66 33.3614 105.269 32.6283C105.255 32.5852 105.269 32.4846 105.284 32.4702C106.615 31.9528 107.643 31.0041 107.643 29.4517C107.643 27.655 106.297 26.3901 103.807 26.3901C102.62 26.3901 101.506 26.4476 99.9713 26.4476C99.2041 26.4476 97.6264 26.3901 97.1487 26.3901C97.0474 26.4333 97.004 26.9507 97.0908 27.0657V27.037ZM102.273 27.2238C103.822 27.2238 104.748 28.3881 104.748 30.0411C104.748 31.3059 104.372 31.8234 103.836 32.0821C103.474 32.2834 102.519 32.3552 101.665 32.3265C101.607 32.3265 101.549 32.2402 101.549 32.1684C101.549 29.5236 101.549 28.0431 101.592 27.5975C101.592 27.5113 101.65 27.3532 101.737 27.2957C101.882 27.2382 102.143 27.2094 102.287 27.2094L102.273 27.2238ZM85.8006 27.037C86.177 27.0801 86.5533 27.1232 86.8428 27.2238C87.2191 27.3388 87.3639 27.4969 87.4073 28.0719C87.4652 28.7905 87.4652 30.3573 87.4652 31.8378C87.4652 34.1376 87.4652 35.5174 87.4073 36.6673C87.4073 37.3142 87.2047 37.5298 86.8428 37.6304C86.5533 37.7166 86.0612 37.7885 85.3519 37.8891C85.3085 37.9897 85.3085 38.4066 85.3519 38.5647C86.4375 38.5647 87.9139 38.5072 88.985 38.5072C91.1273 38.5072 93.0524 38.5934 94.746 38.5934C95.6144 38.5934 95.7158 38.4497 95.7881 38.2772C96.15 37.6016 96.6132 35.7905 96.7145 35.3306C96.6277 35.23 96.1066 35.0431 95.9618 35.0719C95.6579 35.7762 95.2815 36.4805 94.8907 36.9117C94.442 37.4291 94.167 37.5154 93.2551 37.5154C92.126 37.5154 91.1418 37.4579 90.7509 37.3717C90.5049 37.3142 90.3312 37.0267 90.3312 36.7105V33.1889C90.3312 33.1458 90.418 33.002 90.4759 33.002C91.0839 33.002 92.6327 33.002 92.9945 33.0452C93.3998 33.1027 93.559 33.3326 93.6748 33.6201L93.8775 34.4394C93.9788 34.4969 94.5578 34.4825 94.6591 34.425C94.6446 33.8645 94.6157 32.9445 94.6157 32.3983C94.6157 31.7515 94.7025 30.9322 94.717 30.4579C94.6157 30.3717 94.0077 30.3573 93.9064 30.4148C93.8485 30.6735 93.8051 30.9322 93.7472 31.1335C93.6314 31.6365 93.4432 31.809 93.0235 31.8378C92.3721 31.8809 90.9825 31.8521 90.4615 31.8521C90.4036 31.8521 90.3167 31.7659 90.3167 31.694C90.3167 30.3285 90.3022 29.0924 90.3167 27.8131C90.3167 27.7125 90.418 27.4682 90.5194 27.4538C90.8378 27.4107 92.7919 27.4107 93.3274 27.4682C93.6025 27.4825 93.9498 27.5832 94.1525 27.9856C94.3117 28.3018 94.413 28.7331 94.5288 29.4661C94.6302 29.5236 95.1802 29.4805 95.296 29.4086C95.3539 28.2875 95.4407 27.0082 95.5855 26.3901C95.5855 26.347 95.5421 26.3039 95.5276 26.3039C94.8183 26.4045 93.6893 26.4189 92.9077 26.4189H88.8548C87.8705 26.4189 86.5967 26.3614 85.8151 26.3614C85.7282 26.4189 85.6993 26.9363 85.7717 27.037H85.8006Z" fill="#FEFEFE"/>
<path fill-rule="evenodd" clip-rule="evenodd" d="M50.8442 32.4415H73.4247V34.0945H50.8442V32.4415ZM176.991 32.4415V34.0945H152.341V32.4415H176.991Z" fill="url(#paint1_linear_2956_2039)"/>
</g>
<defs>
<linearGradient id="paint0_linear_2956_2039" x1="12.7531" y1="41.8535" x2="29.2928" y2="0.0622211" gradientUnits="userSpaceOnUse">
<stop stop-color="#FEFEFE"/>
<stop offset="0.270588" stop-color="#898E91"/>
<stop offset="0.458824" stop-color="#FEFEFE"/>
<stop offset="0.580392" stop-color="#65696D"/>
<stop offset="0.690196" stop-color="#FEFEFE"/>
<stop offset="0.8" stop-color="#898E91"/>
<stop offset="0.890196" stop-color="#FEFEFE"/>
<stop offset="1" stop-color="#282829"/>
</linearGradient>
<linearGradient id="paint1_linear_2956_2039" x1="59.3909" y1="55.1307" x2="168.221" y2="10.8774" gradientUnits="userSpaceOnUse">
<stop stop-color="#FEFEFE"/>
<stop offset="0.270588" stop-color="#898E91"/>
<stop offset="0.380392" stop-color="#FEFEFE"/>
<stop offset="0.470588" stop-color="#65696D"/>
<stop offset="0.580392" stop-color="#FEFEFE"/>
<stop offset="0.729412" stop-color="#898E91"/>
<stop offset="0.788235" stop-color="#FEFEFE"/>
<stop offset="1" stop-color="#282829"/>
</linearGradient>
<clipPath id="clip0_2956_2039">
<rect width="177" height="42" fill="white"/>
</clipPath>
</defs>
</svg>
