<svg width="75" height="70" viewBox="0 0 75 70" fill="none" xmlns="http://www.w3.org/2000/svg">
<path d="M40.0741 46.2468C39.8577 46.3718 39.6127 46.4473 39.3594 46.4595L31.1952 46.8537C28.878 46.9646 26.8847 46.7385 25.0992 46.1652C21.1924 44.9126 17.9139 42.302 15.8699 38.8105L9.13815 27.3214C8.36095 25.9956 8.53518 24.3022 9.56693 23.1067L18.8104 12.4281C19.3559 11.7882 20.1193 11.3429 20.9537 11.1748L34.7886 8.34724C36.336 8.02868 37.8988 8.70783 38.6733 10.033L45.41 21.5306C47.4528 25.016 48.128 29.1478 47.3131 33.1651C46.9389 35.008 46.1593 36.8555 44.9321 38.8137L40.6072 45.7277C40.4737 45.9434 40.2895 46.1202 40.0741 46.2468Z" fill="url(#paint0_linear_209_4067)"/>
<g filter="url(#filter0_f_209_4067)">
<path d="M36.4638 39.4015C36.317 39.4862 36.1533 39.5417 35.9865 39.5586L30.6105 40.1047C29.0847 40.259 27.7842 40.1945 26.633 39.9092C24.1141 39.286 22.0585 37.8061 20.8463 35.7396L16.8536 28.9397C16.3926 28.1551 16.5701 27.1094 17.2921 26.3373L23.7599 19.4398C24.142 19.0268 24.6599 18.7251 25.214 18.5909L34.4045 16.3404C35.4326 16.0872 36.4336 16.4458 36.8928 17.2302L40.8884 24.035C42.1 26.0978 42.3895 28.6082 41.7048 31.1039C41.3904 32.2488 40.8096 33.4116 39.9308 34.659L36.8332 39.0631C36.7375 39.2004 36.61 39.3157 36.4638 39.4015Z" fill="#1EA51F" fill-opacity="0.5"/>
</g>
<g filter="url(#filter1_b_209_4067)">
<mask id="path-3-outside-1_209_4067" maskUnits="userSpaceOnUse" x="20.5604" y="8.67044" width="55.9546" height="62.6456" fill="black">
<rect fill="white" x="20.5604" y="8.67044" width="55.9546" height="62.6456"/>
<path d="M44.5256 66.3618C44.1972 66.3112 43.8803 66.1853 43.6075 65.9863L34.8163 59.5729C32.322 57.7516 30.4442 55.8494 29.071 53.7585C26.0651 49.1854 24.8418 43.7203 25.6322 38.3678L28.2269 20.7501C28.5259 18.7167 30.1175 17.0951 32.183 16.7099L50.6619 13.2924C51.7605 13.0806 52.9229 13.2541 53.9278 13.7761L70.6245 22.3903C72.494 23.3514 73.548 25.3666 73.2467 27.397L70.65 45.0277C69.8635 50.3728 67.1209 55.2492 62.929 58.7606C61.0057 60.3711 58.6582 61.6475 55.7545 62.6653L45.5108 66.2657C45.1926 66.3791 44.8545 66.4097 44.5256 66.3618Z"/>
</mask>
<path d="M44.5256 66.3618C44.1972 66.3112 43.8803 66.1853 43.6075 65.9863L34.8163 59.5729C32.322 57.7516 30.4442 55.8494 29.071 53.7585C26.0651 49.1854 24.8418 43.7203 25.6322 38.3678L28.2269 20.7501C28.5259 18.7167 30.1175 17.0951 32.183 16.7099L50.6619 13.2924C51.7605 13.0806 52.9229 13.2541 53.9278 13.7761L70.6245 22.3903C72.494 23.3514 73.548 25.3666 73.2467 27.397L70.65 45.0277C69.8635 50.3728 67.1209 55.2492 62.929 58.7606C61.0057 60.3711 58.6582 61.6475 55.7545 62.6653L45.5108 66.2657C45.1926 66.3791 44.8545 66.4097 44.5256 66.3618Z" fill="#72DC60" fill-opacity="0.35"/>
<path d="M44.3736 67.3501C44.9195 67.4341 45.43 67.0596 45.514 66.5138C45.5979 65.9679 45.2235 65.4573 44.6776 65.3734L44.3736 67.3501ZM43.6075 65.9863L44.1969 65.1784L44.1969 65.1784L43.6075 65.9863ZM34.8163 59.5729L34.2266 60.3805L34.227 60.3808L34.8163 59.5729ZM29.071 53.7585L29.9069 53.2095L29.9067 53.2092L29.071 53.7585ZM25.6322 38.3678L26.6215 38.5139L26.6215 38.5135L25.6322 38.3678ZM28.2269 20.7501L29.2162 20.8958L29.2162 20.8956L28.2269 20.7501ZM32.183 16.7099L32.0012 15.7266L31.9997 15.7268L32.183 16.7099ZM50.6619 13.2924L50.8437 14.2758L50.8512 14.2743L50.6619 13.2924ZM53.9278 13.7761L53.4668 14.6635L53.4693 14.6647L53.9278 13.7761ZM70.6245 22.3903L70.166 23.279L70.1673 23.2797L70.6245 22.3903ZM73.2467 27.397L72.2576 27.2502L72.2574 27.2513L73.2467 27.397ZM70.65 45.0277L69.6607 44.882L69.6607 44.8821L70.65 45.0277ZM62.929 58.7606L63.571 59.5273L63.5711 59.5272L62.929 58.7606ZM55.7545 62.6653L55.4237 61.7216L55.4229 61.7219L55.7545 62.6653ZM45.5108 66.2657L45.1792 65.3222L45.1748 65.3238L45.5108 66.2657ZM44.6698 65.3722C44.1233 65.2926 43.6157 65.6711 43.5361 66.2176C43.4564 66.7641 43.8349 67.2717 44.3814 67.3513L44.6698 65.3722ZM44.6776 65.3734C44.4994 65.346 44.3342 65.2786 44.1969 65.1784L43.0181 66.7941C43.4265 67.092 43.8949 67.2765 44.3736 67.3501L44.6776 65.3734ZM44.1969 65.1784L35.4057 58.765L34.227 60.3808L43.0182 66.7941L44.1969 65.1784ZM35.406 58.7653C32.9871 56.999 31.201 55.18 29.9069 53.2095L28.2352 54.3074C29.6874 56.5187 31.6569 58.5042 34.2266 60.3805L35.406 58.7653ZM29.9067 53.2092C27.0336 48.8382 25.8675 43.6201 26.6215 38.5139L24.6429 38.2217C23.8162 43.8205 25.0966 49.5325 28.2354 54.3078L29.9067 53.2092ZM26.6215 38.5135L29.2162 20.8958L27.2376 20.6044L24.6429 38.2221L26.6215 38.5135ZM29.2162 20.8956C29.451 19.2994 30.7062 18.0025 32.3664 17.6929L31.9997 15.7268C29.5287 16.1877 27.6009 18.134 27.2375 20.6046L29.2162 20.8956ZM32.3649 17.6932L50.8437 14.2757L50.48 12.3091L32.0012 15.7266L32.3649 17.6932ZM50.8512 14.2743C51.7244 14.106 52.6581 14.2434 53.4668 14.6635L54.3887 12.8886C53.1877 12.2648 51.7965 12.0553 50.4726 12.3105L50.8512 14.2743ZM53.4693 14.6647L70.166 23.279L71.083 21.5016L54.3863 12.8874L53.4693 14.6647ZM70.1673 23.2797C71.6676 24.051 72.4941 25.6564 72.2576 27.2502L74.2359 27.5438C74.602 25.0768 73.3204 22.6519 71.0817 21.501L70.1673 23.2797ZM72.2574 27.2513L69.6607 44.882L71.6393 45.1734L74.236 27.5427L72.2574 27.2513ZM69.6607 44.8821C68.9104 49.9812 66.2934 54.6379 62.2868 57.994L63.5711 59.5272C67.9483 55.8606 70.8167 50.7643 71.6394 45.1733L69.6607 44.8821ZM62.2869 57.9939C60.4744 59.5117 58.2391 60.7347 55.4237 61.7216L56.0853 63.609C59.0772 62.5603 61.5369 61.2306 63.571 59.5273L62.2869 57.9939ZM55.4229 61.7219L45.1792 65.3222L45.8423 67.2091L56.0861 63.6087L55.4229 61.7219ZM45.1748 65.3238C45.015 65.3808 44.842 65.3973 44.6698 65.3722L44.3814 67.3513C44.8669 67.422 45.3702 67.3775 45.8467 67.2075L45.1748 65.3238Z" fill="url(#paint1_linear_209_4067)" mask="url(#path-3-outside-1_209_4067)"/>
</g>
<g filter="url(#filter2_bd_209_4067)">
<path d="M45.6226 45.6811C45.1095 45.6048 44.6253 45.3413 44.2885 44.9008L39.9562 39.2291C39.288 38.3489 39.4696 37.1149 40.3642 36.4697C41.2593 35.8219 42.5289 36.0092 43.2002 36.8872L46.3177 40.9663L56.6042 33.5332C57.5019 32.8859 58.7715 33.0732 59.4402 33.9508C60.1111 34.8314 59.9291 36.0681 59.0348 36.7106L47.1244 45.3183C46.6754 45.6433 46.1357 45.7573 45.6226 45.6811Z" fill="url(#paint2_linear_209_4067)"/>
<path d="M40.4229 36.5507L40.4227 36.5508C39.574 37.1629 39.4014 38.3329 40.0358 39.1686C40.0358 39.1686 40.0359 39.1686 40.0359 39.1687L44.3679 44.8401C44.3679 44.8401 44.3679 44.8401 44.3679 44.8401C44.6879 45.2586 45.1483 45.5095 45.6373 45.5822C46.126 45.6548 46.639 45.5461 47.0658 45.2373L47.0658 45.2373L58.9763 36.6296L58.9765 36.6294C59.8246 36.02 59.9977 34.8476 59.3606 34.0114C58.725 33.1771 57.5167 32.9986 56.6628 33.6143L40.4229 36.5507ZM40.4229 36.5507C41.2739 35.9348 42.4823 36.1129 43.1208 36.9479L46.2382 41.027L46.2973 41.1044L46.3762 41.0473L56.6627 33.6144L40.4229 36.5507Z" stroke="url(#paint3_linear_209_4067)" stroke-opacity="0.5" stroke-width="0.2"/>
</g>
<defs>
<filter id="filter0_f_209_4067" x="0.599365" y="0.260086" width="57.4688" height="55.9261" filterUnits="userSpaceOnUse" color-interpolation-filters="sRGB">
<feFlood flood-opacity="0" result="BackgroundImageFix"/>
<feBlend mode="normal" in="SourceGraphic" in2="BackgroundImageFix" result="shape"/>
<feGaussianBlur stdDeviation="8" result="effect1_foregroundBlur_209_4067"/>
</filter>
<filter id="filter1_b_209_4067" x="0.397705" y="-11.7957" width="97.9001" height="103.179" filterUnits="userSpaceOnUse" color-interpolation-filters="sRGB">
<feFlood flood-opacity="0" result="BackgroundImageFix"/>
<feGaussianBlur in="BackgroundImageFix" stdDeviation="12"/>
<feComposite in2="SourceAlpha" operator="in" result="effect1_backgroundBlur_209_4067"/>
<feBlend mode="normal" in="SourceGraphic" in2="effect1_backgroundBlur_209_4067" result="shape"/>
</filter>
<filter id="filter2_bd_209_4067" x="24.5535" y="18.1478" width="50.2915" height="42.556" filterUnits="userSpaceOnUse" color-interpolation-filters="sRGB">
<feFlood flood-opacity="0" result="BackgroundImageFix"/>
<feGaussianBlur in="BackgroundImageFix" stdDeviation="7.5"/>
<feComposite in2="SourceAlpha" operator="in" result="effect1_backgroundBlur_209_4067"/>
<feColorMatrix in="SourceAlpha" type="matrix" values="0 0 0 0 0 0 0 0 0 0 0 0 0 0 0 0 0 0 127 0" result="hardAlpha"/>
<feOffset dx="5" dy="5"/>
<feGaussianBlur stdDeviation="5"/>
<feColorMatrix type="matrix" values="0 0 0 0 0.454902 0 0 0 0 0.870588 0 0 0 0 0.376471 0 0 0 0.5 0"/>
<feBlend mode="normal" in2="effect1_backgroundBlur_209_4067" result="effect2_dropShadow_209_4067"/>
<feBlend mode="normal" in="SourceGraphic" in2="effect2_dropShadow_209_4067" result="shape"/>
</filter>
<linearGradient id="paint0_linear_209_4067" x1="34.7117" y1="3" x2="24.2234" y2="42.1256" gradientUnits="userSpaceOnUse">
<stop stop-color="#9BF763"/>
<stop offset="1" stop-color="#26AB5B"/>
</linearGradient>
<linearGradient id="paint1_linear_209_4067" x1="36.1364" y1="17.0949" x2="65.11" y2="58.8058" gradientUnits="userSpaceOnUse">
<stop stop-color="white" stop-opacity="0.25"/>
<stop offset="1" stop-color="white" stop-opacity="0"/>
</linearGradient>
<linearGradient id="paint2_linear_209_4067" x1="58.3537" y1="35.8139" x2="36.5809" y2="33.46" gradientUnits="userSpaceOnUse">
<stop stop-color="white"/>
<stop offset="1" stop-color="white" stop-opacity="0.2"/>
</linearGradient>
<linearGradient id="paint3_linear_209_4067" x1="42.0579" y1="35.5427" x2="58.5376" y2="38.2056" gradientUnits="userSpaceOnUse">
<stop stop-color="white"/>
<stop offset="1" stop-color="white" stop-opacity="0"/>
</linearGradient>
</defs>
</svg>
