<svg width="80" height="78" viewBox="0 0 80 78" fill="none" xmlns="http://www.w3.org/2000/svg">
<path d="M45.0473 17.1129L26.8806 21.8813C19.7774 23.7458 16.3362 29.8849 18.3238 37.1511L22.9108 53.9207C24.8927 61.1663 31.0063 64.7975 38.1096 62.933L56.2762 58.1646C63.3795 56.3002 66.7997 50.1665 64.8178 42.9209L60.2307 26.1513C58.2432 18.8851 52.1505 15.2485 45.0473 17.1129Z" fill="url(#paint0_linear_209_4875)"/>
<g opacity="0.5" filter="url(#filter0_f_209_4875)">
<rect x="29.3774" y="56.4016" width="28.5066" height="29.6832" rx="13" transform="rotate(-105 29.3774 56.4016)" fill="#8237FF"/>
</g>
<g filter="url(#filter1_b_209_4875)">
<path d="M65.0088 28.264H43.577C35.1971 28.264 29.561 34.0272 29.561 42.5993V62.383C29.561 70.9309 35.1971 76.6941 43.577 76.6941H65.0088C73.3888 76.6941 79.0001 70.9309 79.0001 62.383V42.5993C79.0001 34.0272 73.3888 28.264 65.0088 28.264Z" fill="#BA90FF" fill-opacity="0.35"/>
<path d="M65.0088 27.764H43.577C39.2689 27.764 35.6305 29.2479 33.069 31.8676C30.5085 34.4863 29.061 38.2019 29.061 42.5993V62.383C29.061 66.7687 30.5088 70.4783 33.0693 73.0938C35.6307 75.7102 39.2689 77.1941 43.577 77.1941H65.0088C69.317 77.1941 72.9493 75.7102 75.5047 73.0934C78.0589 70.4776 79.5001 66.7681 79.5001 62.383V42.5993C79.5001 38.2025 78.0592 34.4869 75.5049 31.868C72.9495 29.248 69.317 27.764 65.0088 27.764Z" stroke="url(#paint1_linear_209_4875)" stroke-linecap="round" stroke-linejoin="round"/>
</g>
<g filter="url(#filter2_bd_209_4875)">
<mask id="path-5-inside-1_209_4875" fill="white">
<path fill-rule="evenodd" clip-rule="evenodd" d="M62.1638 61.4618C62.4629 61.6338 62.7892 61.7161 63.113 61.7161C63.7434 61.7161 64.3589 61.3989 64.7074 60.8298C64.8841 60.5393 64.9683 60.2201 64.9688 59.9049C64.9699 59.2846 64.6467 58.6794 64.0647 58.3373L55.2646 53.1965V42.0075C55.2646 41.005 54.434 40.1913 53.4106 40.1913C52.3872 40.1913 51.5566 41.005 51.5566 42.0075V54.228V54.2288C51.5566 54.8681 51.9002 55.4614 52.4589 55.7907L62.1638 61.4618Z"/>
</mask>
<path fill-rule="evenodd" clip-rule="evenodd" d="M62.1638 61.4618C62.4629 61.6338 62.7892 61.7161 63.113 61.7161C63.7434 61.7161 64.3589 61.3989 64.7074 60.8298C64.8841 60.5393 64.9683 60.2201 64.9688 59.9049C64.9699 59.2846 64.6467 58.6794 64.0647 58.3373L55.2646 53.1965V42.0075C55.2646 41.005 54.434 40.1913 53.4106 40.1913C52.3872 40.1913 51.5566 41.005 51.5566 42.0075V54.228V54.2288C51.5566 54.8681 51.9002 55.4614 52.4589 55.7907L62.1638 61.4618Z" fill="url(#paint2_linear_209_4875)"/>
<path d="M62.1638 61.4618L61.962 61.8072L61.9644 61.8086L62.1638 61.4618ZM64.7074 60.8298L65.0485 61.0388L65.0492 61.0376L64.7074 60.8298ZM64.9688 59.9049L64.5688 59.9041V59.9043L64.9688 59.9049ZM64.0647 58.3373L64.2674 57.9925L64.2665 57.992L64.0647 58.3373ZM55.2646 53.1965H54.8646V53.4261L55.0628 53.5419L55.2646 53.1965ZM52.4589 55.7907L52.2558 56.1353L52.2571 56.136L52.4589 55.7907ZM63.113 61.3161C62.8576 61.3161 62.6002 61.2513 62.3631 61.115L61.9644 61.8086C62.3256 62.0162 62.7208 62.1161 63.113 62.1161V61.3161ZM64.3663 60.6209C64.0943 61.0651 63.6115 61.3161 63.113 61.3161V62.1161C63.8752 62.1161 64.6235 61.7327 65.0485 61.0388L64.3663 60.6209ZM64.5688 59.9043C64.5684 60.148 64.5035 60.3953 64.3656 60.622L65.0492 61.0376C65.2647 60.6832 65.3682 60.2922 65.3688 59.9055L64.5688 59.9043ZM65.3688 59.9056C65.3702 59.1461 64.9743 58.408 64.2674 57.9925L63.862 58.6822C64.3191 58.9508 64.5697 59.4231 64.5688 59.9041L65.3688 59.9056ZM64.2665 57.992L55.4663 52.8511L55.0628 53.5419L63.8629 58.6827L64.2665 57.992ZM54.8646 42.0075V53.1965H55.6646V42.0075H54.8646ZM53.4106 40.5913C54.2209 40.5913 54.8646 41.2336 54.8646 42.0075H55.6646C55.6646 40.7763 54.6471 39.7913 53.4106 39.7913V40.5913ZM51.9566 42.0075C51.9566 41.2336 52.6003 40.5913 53.4106 40.5913V39.7913C52.1741 39.7913 51.1566 40.7763 51.1566 42.0075H51.9566ZM51.9566 54.228V42.0075H51.1566V54.228H51.9566ZM51.9566 54.2288V54.228H51.1566V54.2288H51.9566ZM52.662 55.4461C52.2227 55.1871 51.9566 54.7234 51.9566 54.2288H51.1566C51.1566 55.0128 51.5778 55.7356 52.2558 56.1353L52.662 55.4461ZM62.3656 61.1165L52.6607 55.4453L52.2571 56.136L61.962 61.8072L62.3656 61.1165Z" fill="url(#paint3_linear_209_4875)" mask="url(#path-5-inside-1_209_4875)"/>
</g>
<defs>
<filter id="filter0_f_209_4875" x="0.917969" y="0.102234" width="78.2129" height="77.3809" filterUnits="userSpaceOnUse" color-interpolation-filters="sRGB">
<feFlood flood-opacity="0" result="BackgroundImageFix"/>
<feBlend mode="normal" in="SourceGraphic" in2="BackgroundImageFix" result="shape"/>
<feGaussianBlur stdDeviation="12" result="effect1_foregroundBlur_209_4875"/>
</filter>
<filter id="filter1_b_209_4875" x="4.56104" y="3.26404" width="99.439" height="98.4301" filterUnits="userSpaceOnUse" color-interpolation-filters="sRGB">
<feFlood flood-opacity="0" result="BackgroundImageFix"/>
<feGaussianBlur in="BackgroundImageFix" stdDeviation="12"/>
<feComposite in2="SourceAlpha" operator="in" result="effect1_backgroundBlur_209_4875"/>
<feBlend mode="normal" in="SourceGraphic" in2="effect1_backgroundBlur_209_4875" result="shape"/>
</filter>
<filter id="filter2_bd_209_4875" x="36.5566" y="25.1913" width="43.4121" height="51.5248" filterUnits="userSpaceOnUse" color-interpolation-filters="sRGB">
<feFlood flood-opacity="0" result="BackgroundImageFix"/>
<feGaussianBlur in="BackgroundImageFix" stdDeviation="7.5"/>
<feComposite in2="SourceAlpha" operator="in" result="effect1_backgroundBlur_209_4875"/>
<feColorMatrix in="SourceAlpha" type="matrix" values="0 0 0 0 0 0 0 0 0 0 0 0 0 0 0 0 0 0 127 0" result="hardAlpha"/>
<feOffset dx="5" dy="5"/>
<feGaussianBlur stdDeviation="5"/>
<feColorMatrix type="matrix" values="0 0 0 0 0.577356 0 0 0 0 0.359375 0 0 0 0 0.9375 0 0 0 0.5 0"/>
<feBlend mode="normal" in2="effect1_backgroundBlur_209_4875" result="effect2_dropShadow_209_4875"/>
<feBlend mode="normal" in="SourceGraphic" in2="effect2_dropShadow_209_4875" result="shape"/>
</filter>
<linearGradient id="paint0_linear_209_4875" x1="35.9535" y1="19.4999" x2="46.758" y2="60.663" gradientUnits="userSpaceOnUse">
<stop stop-color="#BC94FF"/>
<stop offset="1" stop-color="#9F66FF"/>
</linearGradient>
<linearGradient id="paint1_linear_209_4875" x1="37.4309" y1="33.9062" x2="68.184" y2="72.7881" gradientUnits="userSpaceOnUse">
<stop stop-color="white" stop-opacity="0.25"/>
<stop offset="1" stop-color="white" stop-opacity="0"/>
</linearGradient>
<linearGradient id="paint2_linear_209_4875" x1="64.0179" y1="44.0783" x2="49.0683" y2="44.382" gradientUnits="userSpaceOnUse">
<stop stop-color="white"/>
<stop offset="1" stop-color="white" stop-opacity="0.2"/>
</linearGradient>
<linearGradient id="paint3_linear_209_4875" x1="53.6916" y1="42.699" x2="67.2788" y2="53.1846" gradientUnits="userSpaceOnUse">
<stop stop-color="white" stop-opacity="0.25"/>
<stop offset="1" stop-color="white" stop-opacity="0"/>
</linearGradient>
</defs>
</svg>
