<svg width="140" height="24" viewBox="0 0 140 24" fill="none" xmlns="http://www.w3.org/2000/svg">
<path d="M12 2L15.09 8.26L22 9.27L17 14.14L18.18 21.02L12 17.77L5.82 21.02L7 14.14L2 9.27L8.91 8.26L12 2Z" fill="#DDAE06"/>
<path d="M41 2L44.09 8.26L51 9.27L46 14.14L47.18 21.02L41 17.77L34.82 21.02L36 14.14L31 9.27L37.91 8.26L41 2Z" fill="#DDAE06"/>
<path d="M70 2L73.09 8.26L80 9.27L75 14.14L76.18 21.02L70 17.77L63.82 21.02L65 14.14L60 9.27L66.91 8.26L70 2Z" fill="#DDAE06"/>
<path d="M99 2L102.09 8.26L109 9.27L104 14.14L105.18 21.02L99 17.77L92.82 21.02L94 14.14L89 9.27L95.91 8.26L99 2Z" fill="#DDAE06"/>
<path d="M128 3.12963L130.642 8.48131C130.714 8.62874 130.855 8.73097 131.018 8.75474L136.926 9.6183L132.651 13.7818C132.533 13.8967 132.479 14.0623 132.507 14.2245L133.516 20.1058L128.233 17.3275C128.087 17.2508 127.913 17.2508 127.767 17.3275L122.484 20.1058L123.493 14.2245C123.521 14.0623 123.467 13.8967 123.349 13.7818L119.074 9.6183L124.982 8.75474C125.145 8.73097 125.286 8.62874 125.358 8.48131L128 3.12963Z" stroke="#6A7D8E" stroke-linecap="round" stroke-linejoin="round"/>
</svg>
