<svg width="66" height="73" viewBox="0 0 66 73" fill="none" xmlns="http://www.w3.org/2000/svg">
<path d="M45.9751 17.2358L28.8177 12.6385C22.5942 10.9709 17.9943 13.644 16.3212 19.8879L10.6548 41.0353C8.95434 47.3816 11.6234 51.9146 17.8468 53.5822L35.0043 58.1795C41.328 59.8739 45.8037 57.2553 47.5041 50.9091L53.1706 29.7616C54.8436 23.5177 52.2989 18.9303 45.9751 17.2358Z" fill="url(#paint0_linear_209_4901)"/>
<g opacity="0.5" filter="url(#filter0_f_209_4901)">
<path d="M27.0444 34.8188C23.5033 34.4421 20.8169 31.4547 20.8169 27.8937C20.8169 24.3326 23.5033 21.3453 27.0444 20.9686L32.1365 20.4269C36.5729 19.9549 40.4398 23.4323 40.4398 27.8937C40.4398 32.3551 36.5729 35.8325 32.1365 35.3605L27.0444 34.8188Z" fill="#0062FF"/>
</g>
<g filter="url(#filter1_b_209_4901)">
<path d="M59.3766 38.8156C59.3766 30.1848 54.1444 25.1011 45.2901 25.1011H22.0888C13.2322 25.1011 8 30.1848 8 38.8156V57.6138C8 66.2446 13.2322 71.3483 22.0888 71.3483H45.2992C54.1535 71.3483 59.3858 66.2446 59.3858 57.6138C59.3858 48.9829 59.3766 39.7692 59.3766 38.8156Z" fill="#3EA0FE" fill-opacity="0.35"/>
<path d="M59.8766 38.8156C59.8766 34.3982 58.5353 30.8281 56.0024 28.3635C53.4713 25.9006 49.8116 24.6011 45.2901 24.6011H22.0888C17.5662 24.6011 13.9059 25.9006 11.3745 28.3634C8.8413 30.8281 7.5 34.3982 7.5 38.8156V57.6138C7.5 62.0312 8.84126 65.606 11.3741 68.0756C13.9053 70.5436 17.5657 71.8483 22.0888 71.8483H45.2992C49.8213 71.8483 53.481 70.5436 56.0119 68.0756C58.5445 65.606 59.8858 62.0312 59.8858 57.6138C59.8858 53.2982 59.8835 48.8369 59.8812 45.3354C59.8801 43.583 59.8789 42.0712 59.8781 40.9382C59.8772 39.8071 59.8766 39.0537 59.8766 38.8156Z" stroke="url(#paint1_linear_209_4901)" stroke-linecap="round" stroke-linejoin="round"/>
</g>
<g filter="url(#filter2_b_209_4901)">
<path d="M40.8433 49.3778C41.5368 52.5199 44.3023 54.7306 47.4596 54.6731H61.6209C62.9345 54.6731 64.0001 53.5893 64.0001 52.2497V43.887C63.9973 42.5502 62.9345 41.4636 61.6209 41.4607H47.2059C43.6144 41.4722 40.7136 44.4418 40.7192 48.1014C40.7192 48.5297 40.7615 48.9581 40.8433 49.3778Z" fill="#3EA0FE" fill-opacity="0.35"/>
<path d="M40.3525 49.4734L40.3524 49.4734L40.355 49.4855C41.0982 52.8526 44.0646 55.2328 47.464 55.1731H61.6209C63.2191 55.1731 64.5001 53.857 64.5001 52.2497L64.5001 43.887L64.5001 43.8859C64.4968 42.2835 63.2204 40.9642 61.622 40.9607H61.6209L47.2059 40.9607L47.2043 40.9607C43.3283 40.9731 40.2134 44.1754 40.2192 48.1018C40.2193 48.5628 40.2648 49.023 40.3525 49.4734Z" stroke="url(#paint2_linear_209_4901)" stroke-linecap="round" stroke-linejoin="round"/>
</g>
<g filter="url(#filter3_bd_209_4901)">
<ellipse cx="47.3256" cy="48.0674" rx="2.83146" ry="2.83146" fill="url(#paint3_linear_209_4901)"/>
<path d="M50.0571 48.0674C50.0571 49.576 48.8341 50.7989 47.3256 50.7989C45.8171 50.7989 44.5941 49.576 44.5941 48.0674C44.5941 46.5589 45.8171 45.336 47.3256 45.336C48.8341 45.336 50.0571 46.5589 50.0571 48.0674Z" stroke="url(#paint4_linear_209_4901)" stroke-opacity="0.5" stroke-width="0.2"/>
</g>
<g filter="url(#filter4_bd_209_4901)">
<path d="M34.6863 38.8961H20.1955C19.1107 38.8917 18.2337 38.0299 18.2383 36.9722C18.2429 35.919 19.1176 35.0661 20.1955 35.0617H34.6954C35.7803 35.0572 36.6664 35.9123 36.6709 36.97C36.6755 38.0299 35.7985 38.8917 34.7137 38.8961H34.6954H34.6863Z" fill="url(#paint5_linear_209_4901)"/>
<path d="M34.6954 35.1617L34.6959 35.1617C35.728 35.1574 36.5666 35.9704 36.5709 36.9704C36.5753 37.9727 35.7453 38.7918 34.7135 38.7961H34.6954H34.6863H20.1958C19.1638 38.7918 18.334 37.9726 18.3383 36.9726C18.3426 35.9766 19.1705 35.166 20.1957 35.1617L34.6954 35.1617Z" stroke="url(#paint6_linear_209_4901)" stroke-opacity="0.5" stroke-width="0.2"/>
</g>
<defs>
<filter id="filter0_f_209_4901" x="0.816895" y="0.383911" width="59.623" height="55.0195" filterUnits="userSpaceOnUse" color-interpolation-filters="sRGB">
<feFlood flood-opacity="0" result="BackgroundImageFix"/>
<feBlend mode="normal" in="SourceGraphic" in2="BackgroundImageFix" result="shape"/>
<feGaussianBlur stdDeviation="10" result="effect1_foregroundBlur_209_4901"/>
</filter>
<filter id="filter1_b_209_4901" x="-17" y="0.101135" width="101.386" height="96.2472" filterUnits="userSpaceOnUse" color-interpolation-filters="sRGB">
<feFlood flood-opacity="0" result="BackgroundImageFix"/>
<feGaussianBlur in="BackgroundImageFix" stdDeviation="12"/>
<feComposite in2="SourceAlpha" operator="in" result="effect1_backgroundBlur_209_4901"/>
<feBlend mode="normal" in="SourceGraphic" in2="effect1_backgroundBlur_209_4901" result="shape"/>
</filter>
<filter id="filter2_b_209_4901" x="15.7192" y="16.4607" width="73.2808" height="63.2135" filterUnits="userSpaceOnUse" color-interpolation-filters="sRGB">
<feFlood flood-opacity="0" result="BackgroundImageFix"/>
<feGaussianBlur in="BackgroundImageFix" stdDeviation="12"/>
<feComposite in2="SourceAlpha" operator="in" result="effect1_backgroundBlur_209_4901"/>
<feBlend mode="normal" in="SourceGraphic" in2="effect1_backgroundBlur_209_4901" result="shape"/>
</filter>
<filter id="filter3_bd_209_4901" x="29.4941" y="30.236" width="35.6631" height="35.6629" filterUnits="userSpaceOnUse" color-interpolation-filters="sRGB">
<feFlood flood-opacity="0" result="BackgroundImageFix"/>
<feGaussianBlur in="BackgroundImageFix" stdDeviation="7.5"/>
<feComposite in2="SourceAlpha" operator="in" result="effect1_backgroundBlur_209_4901"/>
<feColorMatrix in="SourceAlpha" type="matrix" values="0 0 0 0 0 0 0 0 0 0 0 0 0 0 0 0 0 0 127 0" result="hardAlpha"/>
<feOffset dx="5" dy="5"/>
<feGaussianBlur stdDeviation="5"/>
<feColorMatrix type="matrix" values="0 0 0 0 0.15375 0 0 0 0 0.522433 0 0 0 0 0.9 0 0 0 0.5 0"/>
<feBlend mode="normal" in2="effect1_backgroundBlur_209_4901" result="effect2_dropShadow_209_4901"/>
<feBlend mode="normal" in="SourceGraphic" in2="effect2_dropShadow_209_4901" result="shape"/>
</filter>
<filter id="filter4_bd_209_4901" x="3.23828" y="20.0616" width="48.4326" height="33.8345" filterUnits="userSpaceOnUse" color-interpolation-filters="sRGB">
<feFlood flood-opacity="0" result="BackgroundImageFix"/>
<feGaussianBlur in="BackgroundImageFix" stdDeviation="7.5"/>
<feComposite in2="SourceAlpha" operator="in" result="effect1_backgroundBlur_209_4901"/>
<feColorMatrix in="SourceAlpha" type="matrix" values="0 0 0 0 0 0 0 0 0 0 0 0 0 0 0 0 0 0 127 0" result="hardAlpha"/>
<feOffset dx="5" dy="5"/>
<feGaussianBlur stdDeviation="5"/>
<feColorMatrix type="matrix" values="0 0 0 0 0.15375 0 0 0 0 0.522433 0 0 0 0 0.9 0 0 0 0.5 0"/>
<feBlend mode="normal" in2="effect1_backgroundBlur_209_4901" result="effect2_dropShadow_209_4901"/>
<feBlend mode="normal" in="SourceGraphic" in2="effect2_dropShadow_209_4901" result="shape"/>
</filter>
<linearGradient id="paint0_linear_209_4901" x1="53.1843" y1="19.1675" x2="5.16115" y2="33.716" gradientUnits="userSpaceOnUse">
<stop stop-color="#39AFFD"/>
<stop offset="1" stop-color="#477FFF"/>
</linearGradient>
<linearGradient id="paint1_linear_209_4901" x1="16.1798" y1="30.489" x2="53.7043" y2="72.9615" gradientUnits="userSpaceOnUse">
<stop stop-color="white" stop-opacity="0.25"/>
<stop offset="1" stop-color="white" stop-opacity="0"/>
</linearGradient>
<linearGradient id="paint2_linear_209_4901" x1="44.4252" y1="43.0001" x2="53.6121" y2="59.4888" gradientUnits="userSpaceOnUse">
<stop stop-color="white" stop-opacity="0.25"/>
<stop offset="1" stop-color="white" stop-opacity="0"/>
</linearGradient>
<linearGradient id="paint3_linear_209_4901" x1="49.7556" y1="46.2586" x2="43.4476" y2="46.4642" gradientUnits="userSpaceOnUse">
<stop stop-color="white"/>
<stop offset="1" stop-color="white" stop-opacity="0.2"/>
</linearGradient>
<linearGradient id="paint4_linear_209_4901" x1="45.1042" y1="47.1356" x2="49.9128" y2="47.1621" gradientUnits="userSpaceOnUse">
<stop stop-color="white"/>
<stop offset="1" stop-color="white" stop-opacity="0"/>
</linearGradient>
<linearGradient id="paint5_linear_209_4901" x1="35.3641" y1="35.7541" x2="15.3028" y2="38.8983" gradientUnits="userSpaceOnUse">
<stop stop-color="white"/>
<stop offset="1" stop-color="white" stop-opacity="0.2"/>
</linearGradient>
<linearGradient id="paint6_linear_209_4901" x1="20.2239" y1="36.3479" x2="35.8652" y2="36.763" gradientUnits="userSpaceOnUse">
<stop stop-color="white"/>
<stop offset="1" stop-color="white" stop-opacity="0"/>
</linearGradient>
</defs>
</svg>
