<svg width="177" height="42" viewBox="0 0 177 42" fill="none" xmlns="http://www.w3.org/2000/svg">
<g clip-path="url(#clip0_119_396)">
<path fill-rule="evenodd" clip-rule="evenodd" d="M13.7311 1.81109C16.4813 0.560575 19.6657 0 22.4449 0C25.4845 0 28.4084 0.143737 31.4336 0.445585C31.9981 0.50308 32.5627 0.560575 33.1272 0.61807C33.3877 0.646817 33.6048 0.761807 33.7641 0.977413C33.9233 1.17864 33.9812 1.423 33.9233 1.68172C33.9088 1.76797 33.8943 1.85421 33.8798 1.94045L33.8509 2.14168C33.793 2.42916 33.7496 2.73101 33.7062 3.03285L34.2707 1.48049C34.4009 1.12115 34.7339 0.89117 35.1247 0.89117H41.3633C41.8554 0.89117 42.2607 1.29363 42.2607 1.78234V3.20534C42.2607 3.6653 41.9133 4.05339 41.4356 4.09651C40.1329 4.2115 39.1052 5.31828 39.1052 6.62628V34.8419C39.1052 36.1499 40.1184 37.2567 41.4356 37.3717C41.8988 37.4148 42.2607 37.8029 42.2607 38.2628V39.6858C42.2607 40.1745 41.8554 40.577 41.3633 40.577H30.7533C30.377 40.577 30.0441 40.347 29.9138 40.0021C29.8125 39.729 29.8414 39.4415 30.0006 39.1971C29.1756 39.7146 28.3071 40.1458 27.4097 40.4908C24.8332 41.5832 21.9817 42 19.1881 42C15.8589 42 12.4863 41.4682 9.41767 40.117H9.43214C9.41767 40.117 9.41767 40.1027 9.40319 40.1027L9.34529 40.0739C9.33082 40.0739 9.33082 40.0595 9.31635 40.0595L9.2295 40.0164C9.2295 40.0164 9.21502 40.0164 9.21502 40.0021L9.1137 39.9589L9.04133 39.9158L8.96895 39.8727C8.83868 39.8008 8.72288 39.7146 8.63604 39.5852C8.60709 39.5565 8.59261 39.5133 8.56366 39.4846L8.54919 39.4702C8.53471 39.4415 8.52024 39.4127 8.50576 39.384L8.46234 39.3121L8.44787 39.2834C8.44787 39.269 8.44787 39.269 8.43339 39.2546V39.6571C8.43339 39.9014 8.34654 40.117 8.17285 40.2895C7.99915 40.462 7.78203 40.5483 7.53596 40.5483H0.935515C0.443377 40.5483 0.0380859 40.1458 0.0380859 39.6571V38.2341C0.0380859 37.7741 0.385478 37.386 0.863142 37.3429C2.16586 37.2279 3.19356 36.1212 3.19356 34.8131V6.59754C3.19356 5.28953 2.18034 4.18275 0.863142 4.06776C0.399953 4.02464 0.0380859 3.63655 0.0380859 3.17659V1.75359C0.0380859 1.26489 0.443377 0.862423 0.935515 0.862423H12.8482C13.239 0.862423 13.5574 1.0924 13.6877 1.45175C13.7311 1.56674 13.7456 1.6961 13.7456 1.81109H13.7311ZM29.1322 18.1684C29.0164 18.0103 28.9585 17.8234 28.9729 17.6222L29.0308 15.2218C29.0308 13.2669 29.0887 11.1971 28.669 9.27105C28.5098 8.56674 28.1334 7.93429 27.8294 7.30185C27.7571 7.15811 27.7281 7 27.7426 6.85626C27.3228 6.65503 26.9031 6.4538 26.4688 6.31006C26.107 6.1807 25.8754 5.86448 25.8754 5.49076L25.8609 4.62834C25.7596 4.59959 25.6438 4.57084 25.5424 4.54209L25.0793 5.27515C24.8766 5.59138 24.5147 5.74949 24.1384 5.67762C23.5739 5.56263 22.9949 5.49076 22.4159 5.44764C22.0396 5.41889 21.7356 5.17454 21.6198 4.80082L21.3737 3.96715C21.2869 3.96715 21.2145 3.96715 21.1277 3.96715C21.0987 3.96715 21.0698 3.96715 21.0408 3.96715L20.7948 4.80082C20.679 5.16016 20.375 5.40452 19.9986 5.43327C19.4341 5.47639 18.8696 5.54825 18.3196 5.64887C17.9432 5.72074 17.5814 5.56263 17.3932 5.23203L16.9445 4.49897C16.8432 4.52772 16.7274 4.55647 16.6261 4.58522L16.5971 5.44764C16.5826 5.82136 16.351 6.13758 16.0036 6.26694C15.7865 6.35318 15.5405 6.49692 15.3233 6.59754C15.1641 6.68378 14.9759 6.77002 14.8022 6.85626C14.8457 7.07187 14.8312 7.28747 14.7154 7.50308C13.818 9.06982 13.8035 11.0678 14.4838 12.7064C15.3089 14.6756 16.9879 15.9117 19.0867 16.2998C20.7658 16.6016 22.5607 16.6304 24.2687 16.846C25.9767 17.0616 27.6413 17.4353 29.1611 18.2115L29.1322 18.1684ZM10.8651 22.4805C11.4586 23.1704 12.11 23.731 12.7758 24.1047C13.0653 24.2628 13.239 24.5503 13.239 24.8809V33.922C13.239 34.2669 13.0653 34.5544 12.7613 34.7125C12.6889 34.7556 12.6021 34.7844 12.5152 34.7988L12.3271 35.575C12.4284 35.6324 12.5152 35.6899 12.6166 35.7474L13.2535 35.1581C13.5285 34.8994 13.9193 34.8419 14.2667 35.0144C14.7733 35.2587 15.2944 35.4743 15.8299 35.6756C16.1918 35.8049 16.4234 36.1212 16.4234 36.4949L16.4379 37.3573C16.5392 37.386 16.655 37.4148 16.7563 37.4435L17.2195 36.7105C17.4222 36.3943 17.784 36.2361 18.1604 36.308C18.7249 36.423 19.3039 36.4949 19.8829 36.538C20.2592 36.5667 20.5632 36.8111 20.679 37.1848L20.925 38.0185C21.0119 38.0185 21.0842 38.0185 21.1711 38.0185C21.2 38.0185 21.229 38.0185 21.2579 38.0185L21.504 37.1992C21.6198 36.8398 21.9238 36.5955 22.3001 36.5667C22.8646 36.5236 23.4291 36.4517 23.9792 36.3511C24.3555 36.2793 24.7174 36.4374 24.9056 36.768L25.3543 37.501C25.4556 37.4723 25.5714 37.4435 25.6727 37.4148L25.7017 36.5524C25.7161 36.1786 25.9477 35.8624 26.3096 35.7331C26.7149 35.5893 27.1202 35.4312 27.511 35.2587C27.4965 35.0575 27.5399 34.8563 27.6557 34.6838C28.5387 33.3614 29.1322 31.7947 28.9585 30.1848C28.8282 29.0205 28.2926 27.9281 27.4386 27.1232C27.1781 26.8789 26.9031 26.6776 26.5991 26.4908C24.6016 25.2834 21.5185 25.2259 19.246 25.0678C16.7129 24.8809 14.0206 24.5934 11.8494 23.1848C11.5165 22.9692 11.1981 22.7392 10.8941 22.4949L10.8651 22.4805ZM21.1421 20.3101C20.7658 20.3101 20.4618 20.6119 20.4618 20.9856C20.4618 21.3593 20.7658 21.6612 21.1421 21.6612C21.5185 21.6612 21.8225 21.3593 21.8225 20.9856C21.8225 20.6119 21.5185 20.3101 21.1421 20.3101Z" fill="#65696D"/>
<path fill-rule="evenodd" clip-rule="evenodd" d="M0.906738 1.76791H12.8194C10.5469 3.67961 7.86905 6.31 7.86905 9.86031C7.86905 9.88906 7.86905 9.91781 7.86905 9.94656C7.88353 9.88906 7.898 9.83156 7.898 9.7597L7.91247 9.71658C7.94142 9.60159 7.9559 9.50097 7.98485 9.40035L7.99932 9.35723C8.04275 9.18475 8.08617 8.99789 8.14407 8.82541L8.15854 8.78228C9.82313 3.3059 16.6986 0.891113 22.445 0.891113C27.323 0.891113 29.9284 1.17859 33.026 1.49481C33.0115 1.58105 32.9971 1.66729 32.9826 1.76791L32.9681 1.83978V1.86853L32.9536 1.95477V1.96914C32.5339 4.41267 32.2878 6.94245 32.0996 9.41473V9.47222V9.57284V9.65908V9.73095L32.0852 9.83156V9.87469L32.0707 10.0041V10.0328L32.0562 10.1909L35.1248 1.76791H41.3634V3.19091C39.612 3.34902 38.2224 4.82951 38.2224 6.61185V34.8275C38.2224 36.6098 39.612 38.0903 41.3634 38.2484V39.6714H30.7535C32.9102 37.7597 34.9801 34.77 34.9801 31.3203C34.9801 31.2915 34.9801 31.2628 34.9801 31.234C33.9524 35.3162 30.5653 38.3346 27.0625 39.657C24.8913 40.5769 22.2569 41.1088 19.1738 41.1088C15.9025 41.1088 12.6746 40.5913 9.77971 39.2977H9.76523H9.75076L9.69286 39.2689H9.67838H9.66391H9.64943L9.59154 39.2402H9.57706L9.51916 39.2114H9.50469H9.49021L9.41784 39.1827L9.34547 39.1396C9.33099 39.1252 9.33099 39.1108 9.31652 39.0965V39.0821C9.30204 39.0677 9.30204 39.0533 9.28757 39.039L9.27309 39.0102L9.25862 38.9671L9.24414 38.9383L9.21519 38.8808V38.8665C9.20072 38.8377 9.20072 38.8234 9.18624 38.7946L9.17177 38.7659L9.1573 38.7084L9.14282 38.6796L9.11387 38.6221L9.0994 38.5934L9.07045 38.5215L9.05597 38.4928C9.0415 38.464 9.02702 38.4209 9.02702 38.3921V38.3778L8.99807 38.2771L8.9836 38.234L8.95465 38.1622C8.39014 36.3223 8.0138 34.2094 7.70983 32.3121V32.2977L7.68088 32.1396V32.1252L7.65193 31.9815L7.63746 31.9383L7.62298 31.8377L7.60851 31.7515L7.59403 31.6796L7.57956 31.5646V31.5359L7.56508 31.3921L7.55061 31.2484V31.2197L7.53613 31.1047V31.0759L7.52166 30.9897L7.50718 30.9034L7.49271 30.8172L7.47823 30.6878V30.6735L7.53613 39.7289H0.935688V38.3059C2.68712 38.1478 4.07669 36.6673 4.07669 34.885V6.66935C4.07669 4.88701 2.68712 3.40651 0.935688 3.2484V1.8254L0.906738 1.76791ZM34.7485 27.2381C33.8366 23.0698 31.6799 20.8706 29.5521 19.462C26.2808 17.2915 21.9095 17.7084 18.8843 17.1478C13.4707 16.156 11.9075 10.4928 13.8905 7.02869C13.9195 6.9712 13.2392 6.23814 12.9352 5.73506C12.8773 5.64881 11.7772 5.90754 11.5456 5.99378C12.0522 5.62007 12.8773 5.17448 12.9062 5.20323L14.0787 6.12315C14.1511 6.18064 15.4248 5.4907 15.6854 5.40446L15.6998 5.16011L15.7433 3.89522C16.2788 3.72274 16.8289 3.59337 17.3789 3.46401L18.0447 4.54204L18.175 4.75764C18.754 4.65703 19.3475 4.57078 19.9409 4.52766L20.0133 4.28331L20.3752 3.07592C20.6357 3.06154 20.8818 3.06154 21.1423 3.06154C21.4463 3.06154 21.7647 3.07592 22.0687 3.09029L22.4306 4.29768L22.5029 4.54204C23.1253 4.58516 23.7188 4.6714 24.3267 4.78639L24.457 4.57078L25.1373 3.49276C25.6874 3.62212 26.2374 3.76586 26.7585 3.93834L26.7874 5.20323V5.44758C27.323 5.63444 27.8875 5.92191 28.3941 6.16627L29.581 5.26072L30.8838 6.05128C30.8259 6.13752 29.5666 5.70631 29.4942 5.80692C29.2481 6.20939 28.6112 6.85621 28.6402 6.9137C28.9586 7.54614 29.3784 8.25046 29.5521 9.08413C30.0153 11.1396 29.9429 13.6406 29.9429 15.2217L29.885 17.6509C32.8089 19.3038 35.4722 23.6878 34.8209 26.7351C34.7919 26.8932 34.7919 27.0657 34.7774 27.2381H34.7485ZM28.3796 35.2012L29.4218 36.1642L30.7245 36.0923L29.1902 36.8254L28.4086 36.0923L28.2349 35.9199C27.6993 36.1786 27.1493 36.3942 26.5848 36.5954L26.5703 36.8398L26.5269 38.1047C25.9913 38.2771 25.4413 38.4065 24.8913 38.5359L24.2254 37.4578L24.0951 37.2422C23.5162 37.3429 22.9227 37.4291 22.3148 37.4722L22.2424 37.7166L21.8805 38.924C21.62 38.9383 21.3739 38.9383 21.1134 38.9383C20.8094 38.9383 20.491 38.924 20.187 38.9096L19.8251 37.7022L19.7527 37.4578C19.1303 37.4147 18.5369 37.3285 17.9289 37.2135L17.7987 37.4291L17.1184 38.5071C16.5683 38.3778 16.0183 38.234 15.4972 38.0615L15.4682 36.7967V36.5523C14.9037 36.3511 14.3537 36.1211 13.8181 35.8624L13.63 36.0349L12.7036 36.8973C12.197 36.6385 11.7193 36.3511 11.2416 36.0492L11.5456 34.8275L11.6035 34.5831C11.4443 34.4681 11.2851 34.3675 11.1403 34.2525L10.185 33.3326L8.85333 34.1231L10.3153 32.6139L12.2983 33.9794V24.9383C9.47574 23.3572 7.34796 19.2751 7.59403 16.4435C7.63746 15.9404 7.62298 15.4517 7.69535 14.9917C8.23092 18.5995 10.0692 21.0287 12.2693 22.4804C16.8433 25.4702 24.2254 23.0123 27.9888 26.5338C29.8271 28.2443 30.8403 31.5503 28.3507 35.2443L28.3796 35.2012ZM21.1423 19.4332C22.0108 19.4332 22.7201 20.1375 22.7201 20.9999C22.7201 21.8624 22.0108 22.5667 21.1423 22.5667C20.2738 22.5667 19.5646 21.8624 19.5646 20.9999C19.5646 20.1375 20.2738 19.4332 21.1423 19.4332Z" fill="url(#paint0_linear_119_396)"/>
<path fill-rule="evenodd" clip-rule="evenodd" d="M0.906391 1.76791H12.819C12.6453 1.91165 12.4861 2.05538 12.3124 2.2135H1.35511V3.26278C1.21036 3.23403 1.06561 3.20528 0.906391 3.19091V1.76791ZM10.0399 5.50508C12.9059 2.32848 18.0154 0.891113 22.4302 0.891113C27.3082 0.891113 29.9136 1.17859 33.0112 1.49481C32.9967 1.58105 32.9822 1.66729 32.9678 1.76791L32.9533 1.83978V1.86853V1.8829C30.0728 1.59543 27.4963 1.3367 22.8789 1.3367C17.147 1.3367 9.93858 3.75148 8.27399 9.22787L8.25952 9.27099C8.20162 9.44347 8.1582 9.61596 8.11477 9.80282L8.1003 9.84594C8.07135 9.94655 8.05687 10.0615 8.02793 10.1622L8.01345 10.2053C7.99898 10.2628 7.9845 10.3203 7.9845 10.3921C7.9845 10.3634 7.9845 10.3346 7.9845 10.3059C7.9845 8.48044 9.02668 6.88495 10.0254 5.51945L10.0399 5.50508ZM35.0811 1.76791H41.3197V2.2135H35.5153L31.9835 10.4496L31.998 10.2915V10.2628L32.0124 10.1334V10.0903L32.0269 9.98968V9.91781L32.0414 9.74532V9.68783L35.0666 1.78228L35.0811 1.76791ZM39.4235 37.4578C39.9446 37.8891 40.6104 38.1765 41.3197 38.2484V38.6221C40.567 38.4496 39.9011 38.0328 39.4235 37.4722V37.4578ZM31.6216 39.6714H30.7097C33.0257 37.6303 34.6179 35.3305 34.9508 31.5359C35.11 34.6119 33.7928 37.5728 31.6216 39.6714ZM1.32616 39.6714H0.877441V38.2484C2.62888 38.0903 4.01844 36.6098 4.01844 34.8275V6.61185C4.01844 5.77818 3.71448 5.01637 3.20786 4.41267C3.97502 5.04512 4.45268 5.99378 4.45268 7.04306V35.2587C4.45268 37.041 3.06312 38.5215 1.31168 38.6796V39.6714H1.32616ZM31.694 21.2587C30.9992 20.54 30.261 19.9507 29.5228 19.462C26.2515 17.2915 21.8802 17.7084 18.855 17.1478C17.393 16.8747 16.2061 16.271 15.2942 15.4373C16.2495 16.4722 17.5812 17.2628 19.3037 17.579C22.3144 18.1396 26.6858 17.7227 29.9715 19.8932C30.5505 20.2813 31.1295 20.7268 31.694 21.2443V21.2587ZM30.4781 6.02253C30.2755 5.97941 30.0149 5.90754 29.7978 5.85005L28.857 6.56873C28.6977 6.75559 28.5819 6.89933 28.5964 6.9137C28.9149 7.54614 29.3346 8.25046 29.5083 9.08413C29.9715 11.1396 29.8991 13.6406 29.8991 15.2217L29.8412 17.6509C29.986 17.7371 30.1452 17.8234 30.29 17.924L30.3479 15.6529C30.3479 14.0718 30.4202 11.5708 29.957 9.51534C29.7689 8.68167 29.3491 7.97736 29.0451 7.34491C29.0162 7.28742 29.6531 6.6406 29.8991 6.23814C29.957 6.13752 31.2308 6.56873 31.2887 6.48249L30.4926 5.99378L30.4781 6.02253ZM31.9111 19.3038C33.7928 21.273 35.2837 24.004 34.7482 26.9794C35.5298 24.9958 35.5008 22.3223 31.9111 19.3038ZM28.3648 35.1868L28.828 35.6036C31.3032 31.924 30.29 28.6324 28.4517 26.9075C28.4227 26.8788 28.3793 26.85 28.3504 26.8213C29.957 28.618 30.6952 31.7227 28.3648 35.1868ZM29.7833 36.5236L29.1754 36.811L28.3938 36.078L28.2056 35.9055C27.67 36.1642 27.12 36.3798 26.5555 36.5811L26.541 36.8254L26.4976 38.0903C26.0199 38.234 25.5133 38.3778 25.0212 38.4784L25.3107 38.9527C25.8607 38.8377 26.4107 38.694 26.9463 38.5215L26.9897 37.2566L27.0042 37.0123C27.5687 36.811 28.1188 36.5954 28.6543 36.3367L28.828 36.5092L29.6096 37.2422L31.144 36.5092L29.8412 36.5811L29.7689 36.5236H29.7833ZM24.3698 37.6878L24.2106 37.4291L24.0803 37.2135C23.5013 37.3141 22.9079 37.4004 22.3144 37.4435L22.242 37.6878L21.8802 38.8952C21.6196 38.9096 21.3736 38.9096 21.113 38.9096C20.9104 38.9096 20.7077 38.9096 20.5051 38.8952L20.6354 39.3264C20.9393 39.3408 21.2433 39.3552 21.5617 39.3552C21.8223 39.3552 22.0683 39.3552 22.3289 39.3408L22.6908 38.1334L22.7631 37.8891C23.3132 37.8459 23.8487 37.7884 24.3843 37.6878H24.3698ZM19.8827 37.8459L19.8393 37.6735L19.7669 37.4291C19.1445 37.386 18.551 37.2997 17.9431 37.1847L17.8128 37.4004L17.1325 38.4784C16.7272 38.3921 16.3364 38.2915 15.9456 38.1622V38.464C16.4811 38.6365 17.0167 38.7802 17.5667 38.9096L18.247 37.8316L18.3773 37.616C18.8694 37.7166 19.3616 37.7884 19.8682 37.8316L19.8827 37.8459ZM15.4824 36.7967V36.7679V36.5236C14.9179 36.3223 14.3678 36.0923 13.8323 35.8336L13.6441 36.0061L12.7177 36.8685C12.3848 36.696 12.0519 36.5092 11.7334 36.3223L11.7045 36.4661C12.1822 36.7679 12.6598 37.0554 13.1664 37.3141L14.0928 36.4517L14.281 36.2792C14.6718 36.4661 15.0771 36.6529 15.4969 36.811L15.4824 36.7967ZM22.4302 20.1231C22.5894 20.3675 22.6908 20.6693 22.6908 20.9856C22.6908 21.848 21.9815 22.5523 21.113 22.5523C20.7946 22.5523 20.4906 22.4517 20.2445 22.2936C20.534 22.7104 21.0117 22.9979 21.5617 22.9979C22.4302 22.9979 23.1395 22.2936 23.1395 21.4312C23.1395 20.885 22.8645 20.4106 22.4302 20.1231Z" fill="#FEFEFE"/>
<path d="M176.036 7.56062C175.833 5.89327 175.674 4.78649 175.558 3.79471C174.849 3.56473 173.488 3.14789 171.954 3.14789C168.321 3.14789 166.091 5.36144 166.091 8.13557C166.091 10.8378 168.321 12.2177 170.651 13.4107C172.692 14.4456 173.98 15.4087 173.98 17.1335C173.98 18.9302 172.88 20.0945 171.071 20.0945C168.407 20.0945 166.96 17.2054 166.497 15.5524L165.628 15.8111C165.787 17.2629 166.149 19.5483 166.381 20.1807C166.67 20.3101 167.134 20.5113 167.872 20.7269C168.581 20.9569 169.522 21.115 170.535 21.115C174.328 21.115 176.846 18.8296 176.846 15.8974C176.846 13.1376 174.675 11.7721 172.142 10.5504C169.869 9.4292 168.74 8.55241 168.74 6.9138C168.74 5.43331 169.782 4.1828 171.534 4.1828C173.763 4.1828 174.675 6.10887 175.167 7.76185L176.036 7.57499V7.56062ZM69.9797 3.53598H62.3371V4.41278C64.407 4.57089 64.6096 4.729 64.6096 6.95692V10.9528H56.4169V6.95692C56.4169 4.729 56.6196 4.57089 58.6171 4.41278V3.53598H51.0034V4.41278C53.1167 4.57089 53.3628 4.729 53.3628 6.95692V17.306C53.3628 19.5196 53.1312 19.6777 51.0903 19.8789V20.7126H58.7039V19.8789C56.6341 19.6777 56.4314 19.5196 56.4314 17.306V12.2321H64.6241V17.306C64.6241 19.5196 64.4214 19.6777 62.1923 19.8789V20.7126H69.9942V19.8789C67.8953 19.6777 67.6638 19.5196 67.6638 17.306V6.95692C67.6638 4.729 67.8519 4.57089 69.9942 4.41278V3.53598H69.9797ZM84.5557 16.2136C84.107 17.3635 83.5859 18.2403 83.1227 18.7865C82.5003 19.4621 81.6029 19.6489 79.9527 19.6489C78.8237 19.6489 77.8539 19.6202 77.3907 19.3614C76.8696 19.074 76.7394 18.4559 76.7394 17.2054V12.4764H78.8527C81.1541 12.4764 81.4436 12.6058 81.7766 14.5031H82.6595V9.28547H81.7766C81.4292 11.1109 81.1686 11.2834 78.8527 11.2834H76.7394V5.4908C76.7394 4.68588 76.8117 4.59963 77.7381 4.59963H79.3882C81.0673 4.59963 81.7766 4.78649 82.2108 5.30395C82.6306 5.85015 82.949 6.58321 83.2095 7.60374L84.0925 7.47438C83.9912 5.93639 83.8899 4.11093 83.8609 3.53598H71.4561V4.3984C73.4391 4.58526 73.6852 4.68588 73.6852 7.04317V17.2916C73.6852 19.5052 73.4536 19.6777 71.0653 19.8933V20.7269H84.5123C84.7149 19.922 85.2649 17.4785 85.4531 16.4148L84.5702 16.228L84.5557 16.2136ZM91.2864 12.2896V5.85015C91.2864 5.23208 91.3588 4.9446 91.5469 4.78649C91.7351 4.62838 92.1259 4.52776 92.8497 4.52776C94.5722 4.52776 96.3236 5.5483 96.3236 8.39429C96.3236 9.77417 95.9328 10.8091 94.9919 11.5853C94.3406 12.1027 93.4431 12.2896 92.1983 12.2896H91.2864ZM102.36 20.1664C101.752 19.9651 101.23 19.6489 100.608 19.0021C100.058 18.384 99.4501 17.5935 98.5093 16.1417C97.6987 14.9775 96.6565 13.2095 96.2078 12.3758C98.0895 11.6284 99.5804 10.2916 99.5804 8.0062C99.5804 6.3676 98.8711 5.20333 97.8 4.49902C96.7578 3.76596 95.4117 3.53598 93.226 3.53598H86.0611V4.41278C88.073 4.57089 88.3046 4.77212 88.3046 6.92818V17.2485C88.3046 19.4621 88.0151 19.6633 85.9453 19.8789V20.7126H93.6168V19.8789C91.518 19.6777 91.2864 19.4621 91.2864 17.2485V13.267H91.9088C93.0089 13.267 93.4721 13.612 93.9497 14.3594C94.7314 15.7105 95.542 17.2198 96.3381 18.4128C97.496 20.1089 98.5672 20.7844 101.361 20.8851C101.679 20.9138 102.012 20.9425 102.229 20.9425L102.36 20.1664ZM116.284 15.8543C114.895 18.5565 113.331 19.9795 110.813 19.9795C106.919 19.9795 104.111 16.7023 104.111 11.8152C104.111 7.86247 106.355 4.22592 110.581 4.22592C113.071 4.22592 114.981 5.24645 115.763 8.25056L116.675 8.0637C116.516 6.48259 116.328 5.30395 116.067 3.82345C115.358 3.69409 113.404 3.11914 111.204 3.11914C104.893 3.11914 100.579 6.84193 100.579 12.3183C100.579 16.5298 103.561 21.0719 110.581 21.0719C112.463 21.0719 114.895 20.5545 115.604 20.3676C116.081 19.4908 116.776 17.4641 117.153 16.1848L116.284 15.8255V15.8543ZM135.955 3.53598H129.34V4.41278C131.193 4.51339 131.83 4.95898 131.989 5.92202C132.119 6.72694 132.221 7.7906 132.221 9.87479V12.2896C132.221 16.7023 130.889 19.4333 127.386 19.4333C124.274 19.4333 122.682 17.0616 122.682 12.9651V7.17253C122.682 4.729 122.971 4.57089 124.983 4.41278V3.53598H117.341V4.41278C119.411 4.59963 119.642 4.729 119.642 7.17253V13.4826C119.642 16.6017 120.395 18.5709 121.973 19.7495C123.203 20.7413 124.853 21.1007 126.547 21.1007C128.399 21.1007 130.238 20.4826 131.439 19.2033C132.988 17.5935 133.451 15.3512 133.451 12.3902V9.87479C133.451 7.7906 133.552 6.72694 133.654 5.97951C133.784 4.97335 134.435 4.49902 135.955 4.42715V3.55035V3.53598ZM149.127 16.113C148.635 17.4066 148.157 18.269 147.665 18.8152C147.057 19.4908 146.102 19.6489 144.785 19.6489C143.844 19.6489 143.033 19.6202 142.556 19.3902C142.035 19.1315 141.904 18.6571 141.904 17.3347V6.98567C141.904 4.70025 142.165 4.57089 144.235 4.41278V3.53598H136.52V4.41278C138.633 4.57089 138.879 4.729 138.879 6.98567V17.2485C138.879 19.5052 138.619 19.6633 136.288 19.8789V20.7126H149.026C149.257 19.9651 149.807 17.3635 149.996 16.343L149.127 16.113ZM163.761 16.2136C163.312 17.3635 162.791 18.2403 162.328 18.7865C161.706 19.4621 160.808 19.6489 159.158 19.6489C158.029 19.6489 157.059 19.6202 156.596 19.3614C156.075 19.074 155.945 18.4559 155.945 17.2054V12.4764H158.058C160.359 12.4764 160.649 12.6058 160.982 14.5031H161.865V9.28547H160.982C160.649 11.1109 160.374 11.2834 158.058 11.2834H155.945V5.4908C155.945 4.68588 156.017 4.59963 156.943 4.59963H158.594C160.273 4.59963 160.982 4.78649 161.416 5.30395C161.836 5.85015 162.154 6.58321 162.415 7.60374L163.298 7.47438C163.197 5.93639 163.095 4.11093 163.066 3.53598H150.661V4.3984C152.644 4.58526 152.891 4.68588 152.891 7.04317V17.2916C152.891 19.5052 152.659 19.6777 150.271 19.8933V20.7269H163.718C163.92 19.922 164.47 17.4785 164.658 16.4148L163.776 16.228L163.761 16.2136Z" fill="#FEFEFE"/>
<path d="M76.5511 34.77C76.4353 34.7125 75.8997 34.8706 75.8418 34.9856C75.8563 35.6899 76.2616 37.8891 76.4932 38.2053C76.9998 38.4641 78.2301 38.8521 79.6197 38.8521C82.7462 38.8521 84.4542 37.156 84.4542 35.0287C84.4542 33.5914 83.7884 32.7002 82.2975 31.7803C81.429 31.2628 80.9224 30.961 80.0539 30.4148C79.2289 29.8542 78.8091 29.308 78.8091 28.4743C78.8091 27.54 79.4749 26.7926 80.5461 26.7926C81.1685 26.7926 81.6317 26.9076 82.0514 27.2526C82.5291 27.5975 82.8041 28.1725 82.9778 29.3942C83.0791 29.4517 83.5857 29.4517 83.6871 29.3511C83.7739 28.1006 83.8897 27.1663 84.0345 26.4045C83.0502 26.3039 82.2251 26.0452 80.6619 26.0452C78.3459 26.0452 76.3629 27.3101 76.3629 29.6673C76.3629 31.7947 77.8104 32.7146 79.5328 33.7782C81.4145 34.9137 81.7909 35.5174 81.7909 36.4661C81.7909 37.4723 81.0382 38.0328 80.0973 38.0328C79.5184 38.0328 78.7802 37.8747 78.2591 37.4866C77.5064 36.9261 76.9853 36.1499 76.5511 34.77ZM141.094 27.037C141.47 27.0801 141.846 27.1232 142.136 27.2238C142.512 27.3388 142.657 27.4969 142.7 28.0719C142.758 28.7905 142.758 30.3573 142.758 31.8378C142.758 34.1376 142.758 35.5174 142.7 36.6673C142.7 37.3142 142.498 37.5298 142.136 37.6304C141.846 37.7166 141.354 37.7885 140.645 37.8891C140.601 37.9897 140.601 38.4066 140.645 38.5647C141.73 38.5647 143.207 38.5072 144.278 38.5072C146.42 38.5072 148.345 38.5934 150.039 38.5934C150.907 38.5934 151.009 38.4497 151.081 38.2772C151.443 37.6016 151.906 35.7905 152.007 35.3306C151.921 35.23 151.4 35.0431 151.255 35.0719C150.951 35.7762 150.574 36.4805 150.184 36.9117C149.735 37.4291 149.46 37.5154 148.548 37.5154C147.419 37.5154 146.435 37.4579 146.044 37.3717C145.798 37.3142 145.624 37.0267 145.624 36.7105V33.1889C145.624 33.1458 145.711 33.002 145.769 33.002C146.377 33.002 147.926 33.002 148.287 33.0452C148.693 33.1027 148.852 33.3326 148.968 33.6201L149.17 34.4394C149.272 34.4969 149.851 34.4825 149.952 34.425C149.938 33.8645 149.909 32.9445 149.909 32.3983C149.909 31.7515 149.995 30.9322 150.01 30.4579C149.909 30.3717 149.301 30.3573 149.199 30.4148C149.141 30.6735 149.098 30.9322 149.04 31.1335C148.924 31.6365 148.736 31.809 148.316 31.8378C147.665 31.8809 146.276 31.8521 145.754 31.8521C145.697 31.8521 145.61 31.7659 145.61 31.694C145.61 30.3285 145.595 29.0924 145.61 27.8131C145.61 27.7125 145.711 27.4682 145.812 27.4538C146.131 27.4107 148.085 27.4107 148.62 27.4682C148.895 27.4825 149.243 27.5832 149.445 27.9856C149.605 28.3018 149.706 28.7331 149.822 29.4661C149.923 29.5236 150.473 29.4805 150.589 29.4086C150.647 28.2875 150.734 27.0082 150.878 26.3901C150.878 26.347 150.835 26.3039 150.821 26.3039C150.111 26.4045 148.982 26.4189 148.201 26.4189H144.148C143.163 26.4189 141.89 26.3614 141.108 26.3614C141.021 26.4189 140.992 26.9363 141.065 27.037H141.094ZM138.517 29.7823C138.561 29.8829 139.183 29.8398 139.27 29.7248C139.27 28.6612 139.472 27.0082 139.588 26.3758C138.676 26.3326 137.07 26.0595 135.492 26.0595C133.813 26.0595 132.481 26.3614 131.396 26.9076C129.181 27.9856 128.095 30.0986 128.095 32.3409C128.095 36.6817 130.773 38.8665 135.289 38.8665C136.766 38.8665 137.649 38.579 138.314 38.3922C138.879 38.0185 139.704 36.3942 139.95 35.5893C139.849 35.4025 139.501 35.2156 139.342 35.1725C138.893 35.9343 138.314 36.7392 137.808 37.1704C137.2 37.7166 136.433 37.7885 135.854 37.7885C132.611 37.7885 131.396 34.8706 131.396 32.1396C131.396 28.5174 132.872 26.8788 135 26.8788C135.81 26.8788 136.606 26.9795 137.359 27.3963C138.17 27.8706 138.3 28.6324 138.503 29.7967L138.517 29.7823ZM121.958 27.037C122.421 27.0944 122.682 27.1376 123.073 27.2382C123.42 27.3532 123.55 27.6406 123.579 28.0575C123.637 28.9199 123.637 29.8829 123.637 31.9959C123.637 33.6201 123.637 35.9199 123.594 36.6242C123.536 37.4291 123.406 37.5873 122.884 37.7022C122.667 37.7454 122.378 37.8029 121.958 37.8604C121.857 37.9466 121.857 38.4641 121.958 38.5359C122.725 38.5359 123.333 38.4784 125.143 38.4784C126.575 38.4784 127.343 38.5216 128.168 38.5359C128.255 38.4784 128.327 37.961 128.269 37.8604C127.864 37.7741 127.357 37.7166 127.126 37.6448C126.561 37.501 126.547 37.0411 126.518 36.6817C126.474 35.9055 126.503 34.4394 126.503 32.0103C126.503 30.2854 126.489 28.8624 126.518 28.2443C126.532 27.6694 126.561 27.3819 126.995 27.2238C127.256 27.1376 127.647 27.0801 128.037 27.0226C128.124 26.922 128.095 26.4189 128.037 26.347C127.618 26.347 126.923 26.4045 124.969 26.4045C123.579 26.4045 122.696 26.347 121.958 26.347C121.871 26.4333 121.871 26.922 121.944 27.0226L121.958 27.037ZM107.31 27.0513C107.715 27.1088 107.918 27.1519 108.178 27.2382C108.844 27.425 109.119 27.8419 109.77 29.3367C110.378 30.7597 111.276 33.0883 112.376 35.848C112.796 36.8829 113.129 37.7885 113.404 38.6509C113.852 38.6078 114.75 38.6078 115.155 38.6509C115.343 38.0472 115.633 37.1273 116.197 35.7618C117.225 33.2608 118.412 30.4148 119.063 28.9343C119.468 28.0287 119.715 27.5975 120.236 27.3101C120.438 27.1951 120.815 27.1088 121.278 27.037C121.365 26.8932 121.321 26.4189 121.263 26.3614C120.8 26.3614 120.178 26.4189 118.86 26.4189C117.413 26.4189 116.704 26.3326 116.356 26.3326C116.27 26.3901 116.212 26.9076 116.27 27.037C116.791 27.0944 117.239 27.1951 117.543 27.2813C118.093 27.4394 118.151 27.8419 117.92 28.5031C117.558 29.7823 115.937 33.9363 115.401 35.0719C115.358 35.115 115.3 35.0862 115.285 35.0719C114.822 34.0082 112.825 29.0636 112.419 27.8994C112.332 27.6406 112.376 27.4538 112.506 27.3532C112.651 27.2526 113.027 27.1376 113.577 27.037C113.635 26.9507 113.635 26.4189 113.534 26.3614C113.114 26.3614 111.753 26.4189 110.451 26.4189C109.38 26.4189 108.048 26.3614 107.382 26.3614C107.295 26.4045 107.237 26.922 107.295 27.0657L107.31 27.0513ZM97.0906 27.037C97.4669 27.0801 97.8722 27.1519 98.1183 27.2238C98.4802 27.3101 98.6683 27.5832 98.6828 28.1294C98.7262 29.0062 98.7262 30.2279 98.7262 32.1684C98.7262 33.4045 98.7118 36.1068 98.6683 36.7392C98.6539 37.3573 98.5091 37.616 98.0894 37.7166C97.8288 37.7741 97.5248 37.8316 97.163 37.8747C97.0617 37.961 97.1051 38.4784 97.1775 38.5503C97.5972 38.5503 98.5091 38.4928 100.188 38.4928C101.78 38.4928 102.75 38.5503 103.199 38.5503C103.315 38.5072 103.344 37.8891 103.242 37.8747C102.721 37.7885 102.533 37.7741 102.171 37.6735C101.751 37.5585 101.621 37.3142 101.607 36.7392C101.592 35.8768 101.563 34.6406 101.563 33.3901C101.563 33.347 101.607 33.2751 101.65 33.2751H102.128C102.403 33.2895 102.577 33.4189 102.707 33.6345C103.358 34.6981 104.299 36.3942 105.11 37.386C105.225 37.5729 105.631 37.9897 106.123 38.2341C106.948 38.5934 109.003 38.694 110.19 38.5934C110.277 38.5359 110.378 37.9322 110.335 37.8747C109.307 37.7597 109.191 37.6879 108.482 37.0123C107.498 36.0636 105.66 33.3614 105.269 32.6283C105.254 32.5852 105.269 32.4846 105.283 32.4702C106.615 31.9528 107.643 31.0041 107.643 29.4517C107.643 27.655 106.296 26.3901 103.807 26.3901C102.62 26.3901 101.505 26.4476 99.9711 26.4476C99.2039 26.4476 97.6262 26.3901 97.1485 26.3901C97.0472 26.4333 97.0038 26.9507 97.0906 27.0657V27.037ZM102.273 27.2238C103.821 27.2238 104.748 28.3881 104.748 30.0411C104.748 31.3059 104.371 31.8234 103.836 32.0821C103.474 32.2834 102.519 32.3552 101.665 32.3265C101.607 32.3265 101.549 32.2402 101.549 32.1684C101.549 29.5236 101.549 28.0431 101.592 27.5975C101.592 27.5113 101.65 27.3532 101.737 27.2957C101.882 27.2382 102.142 27.2094 102.287 27.2094L102.273 27.2238ZM85.8004 27.037C86.1767 27.0801 86.553 27.1232 86.8425 27.2238C87.2189 27.3388 87.3636 27.4969 87.4071 28.0719C87.465 28.7905 87.465 30.3573 87.465 31.8378C87.465 34.1376 87.465 35.5174 87.4071 36.6673C87.4071 37.3142 87.2044 37.5298 86.8425 37.6304C86.553 37.7166 86.0609 37.7885 85.3517 37.8891C85.3082 37.9897 85.3082 38.4066 85.3517 38.5647C86.4373 38.5647 87.9137 38.5072 88.9848 38.5072C91.127 38.5072 93.0522 38.5934 94.7457 38.5934C95.6142 38.5934 95.7155 38.4497 95.7879 38.2772C96.1497 37.6016 96.6129 35.7905 96.7143 35.3306C96.6274 35.23 96.1063 35.0431 95.9616 35.0719C95.6576 35.7762 95.2813 36.4805 94.8905 36.9117C94.4417 37.4291 94.1667 37.5154 93.2548 37.5154C92.1258 37.5154 91.1415 37.4579 90.7507 37.3717C90.5046 37.3142 90.3309 37.0267 90.3309 36.7105V33.1889C90.3309 33.1458 90.4178 33.002 90.4757 33.002C91.0836 33.002 92.6324 33.002 92.9943 33.0452C93.3996 33.1027 93.5588 33.3326 93.6746 33.6201L93.8772 34.4394C93.9785 34.4969 94.5575 34.4825 94.6589 34.425C94.6444 33.8645 94.6154 32.9445 94.6154 32.3983C94.6154 31.7515 94.7023 30.9322 94.7168 30.4579C94.6154 30.3717 94.0075 30.3573 93.9062 30.4148C93.8483 30.6735 93.8049 30.9322 93.747 31.1335C93.6312 31.6365 93.443 31.809 93.0232 31.8378C92.3719 31.8809 90.9823 31.8521 90.4612 31.8521C90.4033 31.8521 90.3165 31.7659 90.3165 31.694C90.3165 30.3285 90.302 29.0924 90.3165 27.8131C90.3165 27.7125 90.4178 27.4682 90.5191 27.4538C90.8375 27.4107 92.7916 27.4107 93.3272 27.4682C93.6022 27.4825 93.9496 27.5832 94.1522 27.9856C94.3115 28.3018 94.4128 28.7331 94.5286 29.4661C94.6299 29.5236 95.1799 29.4805 95.2957 29.4086C95.3536 28.2875 95.4405 27.0082 95.5852 26.3901C95.5852 26.347 95.5418 26.3039 95.5273 26.3039C94.8181 26.4045 93.6891 26.4189 92.9074 26.4189H88.8545C87.8702 26.4189 86.5965 26.3614 85.8148 26.3614C85.728 26.4189 85.699 26.9363 85.7714 27.037H85.8004Z" fill="#FEFEFE"/>
<path fill-rule="evenodd" clip-rule="evenodd" d="M50.8442 32.4415H73.4247V34.0945H50.8442V32.4415ZM176.991 32.4415V34.0945H152.341V32.4415H176.991Z" fill="url(#paint1_linear_119_396)"/>
</g>
<defs>
<linearGradient id="paint0_linear_119_396" x1="12.7533" y1="41.8535" x2="29.293" y2="0.0622211" gradientUnits="userSpaceOnUse">
<stop stop-color="#FEFEFE"/>
<stop offset="0.270588" stop-color="#898E91"/>
<stop offset="0.458824" stop-color="#FEFEFE"/>
<stop offset="0.580392" stop-color="#65696D"/>
<stop offset="0.690196" stop-color="#FEFEFE"/>
<stop offset="0.8" stop-color="#898E91"/>
<stop offset="0.890196" stop-color="#FEFEFE"/>
<stop offset="1" stop-color="#282829"/>
</linearGradient>
<linearGradient id="paint1_linear_119_396" x1="59.3909" y1="55.1307" x2="168.221" y2="10.8774" gradientUnits="userSpaceOnUse">
<stop stop-color="#FEFEFE"/>
<stop offset="0.270588" stop-color="#898E91"/>
<stop offset="0.380392" stop-color="#FEFEFE"/>
<stop offset="0.470588" stop-color="#65696D"/>
<stop offset="0.580392" stop-color="#FEFEFE"/>
<stop offset="0.729412" stop-color="#898E91"/>
<stop offset="0.788235" stop-color="#FEFEFE"/>
<stop offset="1" stop-color="#282829"/>
</linearGradient>
<clipPath id="clip0_119_396">
<rect width="177" height="42" fill="white"/>
</clipPath>
</defs>
</svg>
