<svg width="21" height="20" viewBox="0 0 21 20" fill="none" xmlns="http://www.w3.org/2000/svg">
<path d="M19.1603 2.61C18.0986 1.548 16.691 0.902323 15.1935 0.790378C13.696 0.678433 12.2081 1.10766 11.0003 2C9.72793 1.05363 8.14427 0.624508 6.5682 0.799034C4.99212 0.97356 3.54072 1.73877 2.50625 2.94058C1.47178 4.14239 0.931098 5.69152 0.993077 7.27601C1.05506 8.8605 1.71509 10.3627 2.84028 11.48L10.2903 18.93C10.3832 19.0237 10.4938 19.0981 10.6157 19.1489C10.7376 19.1997 10.8683 19.2258 11.0003 19.2258C11.1323 19.2258 11.263 19.1997 11.3849 19.1489C11.5067 19.0981 11.6173 19.0237 11.7103 18.93L19.1603 11.48C19.7429 10.8977 20.2051 10.2063 20.5205 9.44536C20.8358 8.68439 20.9982 7.86873 20.9982 7.045C20.9982 6.22127 20.8358 5.40561 20.5205 4.64463C20.2051 3.88365 19.7429 3.19227 19.1603 2.61ZM17.7503 10.07L11.0003 16.81L4.25028 10.07C3.65545 9.4727 3.25025 8.71304 3.0855 7.88634C2.92076 7.05963 3.00381 6.20268 3.32423 5.42299C3.64465 4.6433 4.18817 3.97559 4.88662 3.50362C5.58507 3.03165 6.40734 2.77644 7.25028 2.77C8.37639 2.77276 9.45537 3.22233 10.2503 4.02C10.3432 4.11373 10.4538 4.18812 10.5757 4.23889C10.6976 4.28966 10.8283 4.3158 10.9603 4.3158C11.0923 4.3158 11.223 4.28966 11.3449 4.23889C11.4667 4.18812 11.5773 4.11373 11.6703 4.02C12.4886 3.31088 13.5458 2.93914 14.6278 2.98002C15.7099 3.0209 16.736 3.47134 17.4985 4.24019C18.2609 5.00903 18.7029 6.03884 18.7348 7.12119C18.7667 8.20354 18.3862 9.25759 17.6703 10.07H17.7503Z" fill="#39546C"/>
</svg>
