<svg width="24" height="25" viewBox="0 0 24 25" fill="none" xmlns="http://www.w3.org/2000/svg">
<path d="M15.7105 13.21C16.6909 12.4387 17.4065 11.3809 17.7577 10.1839C18.109 8.98697 18.0784 7.71027 17.6703 6.53147C17.2621 5.35267 16.4967 4.33039 15.4806 3.60686C14.4644 2.88332 13.2479 2.49451 12.0005 2.49451C10.753 2.49451 9.5366 2.88332 8.52041 3.60686C7.50423 4.33039 6.73883 5.35267 6.3307 6.53147C5.92257 7.71027 5.892 8.98697 6.24325 10.1839C6.59449 11.3809 7.31009 12.4387 8.29048 13.21C6.61056 13.883 5.14477 14.9994 4.04938 16.4399C2.95398 17.8805 2.27005 19.5913 2.07048 21.39C2.05604 21.5213 2.0676 21.6542 2.10451 21.7811C2.14142 21.9079 2.20295 22.0263 2.2856 22.1293C2.4525 22.3375 2.69527 22.4708 2.96049 22.5C3.2257 22.5292 3.49164 22.4518 3.69981 22.2849C3.90798 22.118 4.04131 21.8752 4.07049 21.61C4.29007 19.6552 5.22217 17.8498 6.6887 16.5388C8.15524 15.2278 10.0534 14.503 12.0205 14.503C13.9876 14.503 15.8857 15.2278 17.3523 16.5388C18.8188 17.8498 19.7509 19.6552 19.9705 21.61C19.9977 21.8557 20.1149 22.0827 20.2996 22.247C20.4843 22.4114 20.7233 22.5015 20.9705 22.5H21.0805C21.3426 22.4698 21.5822 22.3373 21.747 22.1313C21.9119 21.9252 21.9886 21.6624 21.9605 21.4C21.76 19.5962 21.0724 17.881 19.9713 16.4382C18.8703 14.9954 17.3974 13.8795 15.7105 13.21ZM12.0005 12.5C11.2094 12.5 10.436 12.2654 9.7782 11.8259C9.12041 11.3864 8.60772 10.7616 8.30497 10.0307C8.00222 9.29983 7.923 8.49557 8.07734 7.71964C8.23168 6.94372 8.61265 6.23099 9.17206 5.67158C9.73147 5.11217 10.4442 4.7312 11.2201 4.57686C11.996 4.42252 12.8003 4.50173 13.5312 4.80448C14.2621 5.10724 14.8868 5.61993 15.3264 6.27772C15.7659 6.93552 16.0005 7.70888 16.0005 8.5C16.0005 9.56087 15.5791 10.5783 14.8289 11.3284C14.0788 12.0786 13.0614 12.5 12.0005 12.5Z" fill="white"/>
</svg>
